<?xml version="1.0" encoding="UTF-8" standalone="no"?>
<!-- Created with Inkscape (http://www.inkscape.org/) -->

<svg
   width="256"
   height="256"
   viewBox="0 0 67.733332 67.733333"
   version="1.1"
   id="svg1"
   inkscape:version="1.3.1 (9b9bdc1480, 2023-11-25, custom)"
   sodipodi:docname="dice.svg"
   xmlns:inkscape="http://www.inkscape.org/namespaces/inkscape"
   xmlns:sodipodi="http://sodipodi.sourceforge.net/DTD/sodipodi-0.dtd"
   xmlns="http://www.w3.org/2000/svg"
   xmlns:svg="http://www.w3.org/2000/svg">
  <sodipodi:namedview
     id="namedview1"
     pagecolor="#ffffff"
     bordercolor="#000000"
     borderopacity="0.25"
     inkscape:showpageshadow="2"
     inkscape:pageopacity="0.0"
     inkscape:pagecheckerboard="0"
     inkscape:deskcolor="#d1d1d1"
     inkscape:document-units="px"
     showgrid="true"
     inkscape:zoom="2"
     inkscape:cx="38"
     inkscape:cy="86.75"
     inkscape:window-width="1452"
     inkscape:window-height="773"
     inkscape:window-x="1949"
     inkscape:window-y="21"
     inkscape:window-maximized="0"
     inkscape:current-layer="layer1"
     inkscape:lockguides="false">
    <inkscape:grid
       id="grid1"
       units="px"
       originx="0"
       originy="0"
       spacingx="8.4666667"
       spacingy="8.4666667"
       empcolor="#0099e5"
       empopacity="0.30196078"
       color="#0099e5"
       opacity="0.14901961"
       empspacing="5"
       dotted="false"
       gridanglex="30"
       gridanglez="30"
       visible="true" />
  </sodipodi:namedview>
  <defs
     id="defs1" />
  <g
     inkscape:label="Layer 1"
     inkscape:groupmode="layer"
     id="layer1">
    <rect
       style="fill:#800000;stroke-width:0.303734"
       id="rect1"
       width="7.9375"
       height="7.9375"
       x="0.26458332"
       y="0.26458332"
       ry="1.7218493" />
    <circle
       style="fill:#f9f9f9;stroke-width:0.401422"
       id="path1"
       cx="4.2333336"
       cy="4.2333336"
       r="0.52916664" />
    <rect
       style="fill:#800000;stroke-width:0.303734"
       id="rect1-5"
       width="7.9375"
       height="7.9375"
       x="8.7312498"
       y="0.26458332"
       ry="1.7218493" />
    <circle
       style="fill:#f9f9f9;stroke-width:0.401422"
       id="path1-7-7"
       cx="10.583333"
       cy="6.3499999"
       r="0.52916664" />
    <circle
       style="fill:#f9f9f9;stroke-width:0.401422"
       id="path1-6-3"
       cx="14.816667"
       cy="2.1166668"
       r="0.52916664" />
    <rect
       style="fill:#800000;stroke-width:0.303734"
       id="rect1-3"
       width="7.9375"
       height="7.9375"
       x="17.197916"
       y="0.26458332"
       ry="1.7218493" />
    <circle
       style="fill:#f9f9f9;stroke-width:0.401422"
       id="path1-9"
       cx="21.166666"
       cy="4.2333331"
       r="0.52916664" />
    <circle
       style="fill:#f9f9f9;stroke-width:0.401422"
       id="path1-7-8"
       cx="19.049999"
       cy="6.3499999"
       r="0.52916664" />
    <circle
       style="fill:#f9f9f9;stroke-width:0.401422"
       id="path1-6-4"
       cx="23.283333"
       cy="2.1166666"
       r="0.52916664" />
    <rect
       style="fill:#800000;stroke-width:0.303734"
       id="rect1-1"
       width="7.9375"
       height="7.9375"
       x="25.664583"
       y="0.26458332"
       ry="1.7218493" />
    <circle
       style="fill:#f9f9f9;stroke-width:0.401422"
       id="path1-5-2"
       cx="27.516666"
       cy="2.1166666"
       r="0.52916664" />
    <circle
       style="fill:#f9f9f9;stroke-width:0.401422"
       id="path1-2-0"
       cx="31.75"
       cy="6.3499999"
       r="0.52916664" />
    <circle
       style="fill:#f9f9f9;stroke-width:0.401422"
       id="path1-7-6"
       cx="27.516666"
       cy="6.3499999"
       r="0.52916664" />
    <circle
       style="fill:#f9f9f9;stroke-width:0.401422"
       id="path1-6-1"
       cx="31.75"
       cy="2.1166666"
       r="0.52916664" />
    <rect
       style="fill:#800000;stroke-width:0.303734"
       id="rect1-56"
       width="7.9375"
       height="7.9375"
       x="34.131248"
       y="0.26458332"
       ry="1.7218493" />
    <circle
       style="fill:#f9f9f9;stroke-width:0.401422"
       id="path1-74"
       cx="38.099998"
       cy="4.2333336"
       r="0.52916664" />
    <circle
       style="fill:#f9f9f9;stroke-width:0.401422"
       id="path1-5-5"
       cx="35.98333"
       cy="2.1166666"
       r="0.52916664" />
    <circle
       style="fill:#f9f9f9;stroke-width:0.401422"
       id="path1-2-2"
       cx="40.216663"
       cy="6.3499999"
       r="0.52916664" />
    <circle
       style="fill:#f9f9f9;stroke-width:0.401422"
       id="path1-7-5"
       cx="35.98333"
       cy="6.3499999"
       r="0.52916664" />
    <circle
       style="fill:#f9f9f9;stroke-width:0.401422"
       id="path1-6-47"
       cx="40.216663"
       cy="2.1166666"
       r="0.52916664" />
    <rect
       style="fill:#800000;stroke-width:0.303734"
       id="rect1-56-7"
       width="7.9375"
       height="7.9375"
       x="42.597916"
       y="0.26458332"
       ry="1.7218493" />
    <circle
       style="fill:#f9f9f9;stroke-width:0.401422"
       id="path1-20-93-8"
       cx="44.449997"
       cy="4.2333331"
       r="0.52916664" />
    <circle
       style="fill:#f9f9f9;stroke-width:0.401422"
       id="path1-5-5-8"
       cx="44.449997"
       cy="2.1166666"
       r="0.52916664" />
    <circle
       style="fill:#f9f9f9;stroke-width:0.401422"
       id="path1-2-2-8"
       cx="48.683331"
       cy="6.3499999"
       r="0.52916664" />
    <circle
       style="fill:#f9f9f9;stroke-width:0.401422"
       id="path1-7-5-4"
       cx="44.449997"
       cy="6.3499999"
       r="0.52916664" />
    <circle
       style="fill:#f9f9f9;stroke-width:0.401422"
       id="path1-6-47-3"
       cx="48.683331"
       cy="2.1166666"
       r="0.52916664" />
    <circle
       style="fill:#f9f9f9;stroke-width:0.401422"
       id="path1-61-4-1"
       cx="48.683331"
       cy="4.2333331"
       r="0.52916664" />
    <rect
       style="fill:#800000;stroke-width:0.303734"
       id="rect1-0"
       width="7.9375"
       height="7.9375"
       x="0.26458332"
       y="8.7312498"
       ry="1.7218493" />
    <circle
       style="fill:#f9f9f9;stroke-width:0.401422"
       id="path1-6"
       cx="4.2333336"
       cy="12.700001"
       r="0.52916664" />
    <rect
       style="fill:#800000;stroke-width:0.303734"
       id="rect1-5-8"
       width="7.9375"
       height="7.9375"
       x="8.7312489"
       y="8.7312498"
       ry="1.7218493" />
    <circle
       style="fill:#f9f9f9;stroke-width:0.401422"
       id="path1-7-7-9"
       cx="10.583332"
       cy="14.816667"
       r="0.52916664" />
    <circle
       style="fill:#f9f9f9;stroke-width:0.401422"
       id="path1-6-3-2"
       cx="14.816666"
       cy="10.583334"
       r="0.52916664" />
    <rect
       style="fill:#800000;stroke-width:0.303734"
       id="rect1-3-6"
       width="7.9375"
       height="7.9375"
       x="17.197916"
       y="8.7312498"
       ry="1.7218493" />
    <circle
       style="fill:#f9f9f9;stroke-width:0.401422"
       id="path1-9-6"
       cx="21.166666"
       cy="12.7"
       r="0.52916664" />
    <circle
       style="fill:#f9f9f9;stroke-width:0.401422"
       id="path1-7-8-4"
       cx="19.049999"
       cy="14.816667"
       r="0.52916664" />
    <circle
       style="fill:#f9f9f9;stroke-width:0.401422"
       id="path1-6-4-9"
       cx="23.283333"
       cy="10.583334"
       r="0.52916664" />
    <rect
       style="fill:#800000;stroke-width:0.303734"
       id="rect1-1-5"
       width="7.9375"
       height="7.9375"
       x="25.664583"
       y="8.7312498"
       ry="1.7218493" />
    <circle
       style="fill:#f9f9f9;stroke-width:0.401422"
       id="path1-5-2-0"
       cx="27.516666"
       cy="10.583334"
       r="0.52916664" />
    <circle
       style="fill:#f9f9f9;stroke-width:0.401422"
       id="path1-2-0-4"
       cx="31.75"
       cy="14.816667"
       r="0.52916664" />
    <circle
       style="fill:#f9f9f9;stroke-width:0.401422"
       id="path1-7-6-8"
       cx="27.516666"
       cy="14.816667"
       r="0.52916664" />
    <circle
       style="fill:#f9f9f9;stroke-width:0.401422"
       id="path1-6-1-7"
       cx="31.75"
       cy="10.583334"
       r="0.52916664" />
    <rect
       style="fill:#800000;stroke-width:0.303734"
       id="rect1-56-1"
       width="7.9375"
       height="7.9375"
       x="34.131248"
       y="8.7312498"
       ry="1.7218493" />
    <circle
       style="fill:#f9f9f9;stroke-width:0.401422"
       id="path1-74-7"
       cx="38.099998"
       cy="12.700001"
       r="0.52916664" />
    <circle
       style="fill:#f9f9f9;stroke-width:0.401422"
       id="path1-5-5-2"
       cx="35.98333"
       cy="10.583334"
       r="0.52916664" />
    <circle
       style="fill:#f9f9f9;stroke-width:0.401422"
       id="path1-2-2-7"
       cx="40.216663"
       cy="14.816667"
       r="0.52916664" />
    <circle
       style="fill:#f9f9f9;stroke-width:0.401422"
       id="path1-7-5-2"
       cx="35.98333"
       cy="14.816667"
       r="0.52916664" />
    <circle
       style="fill:#f9f9f9;stroke-width:0.401422"
       id="path1-6-47-2"
       cx="40.216663"
       cy="10.583334"
       r="0.52916664" />
    <rect
       style="fill:#800000;stroke-width:0.303734"
       id="rect1-56-7-6"
       width="7.9375"
       height="7.9375"
       x="42.597916"
       y="8.7312498"
       ry="1.7218493" />
    <circle
       style="fill:#f9f9f9;stroke-width:0.401422"
       id="path1-20-93-8-1"
       cx="44.449997"
       cy="12.7"
       r="0.52916664" />
    <circle
       style="fill:#f9f9f9;stroke-width:0.401422"
       id="path1-5-5-8-0"
       cx="44.449997"
       cy="10.583334"
       r="0.52916664" />
    <circle
       style="fill:#f9f9f9;stroke-width:0.401422"
       id="path1-2-2-8-6"
       cx="48.683331"
       cy="14.816667"
       r="0.52916664" />
    <circle
       style="fill:#f9f9f9;stroke-width:0.401422"
       id="path1-7-5-4-1"
       cx="44.449997"
       cy="14.816667"
       r="0.52916664" />
    <circle
       style="fill:#f9f9f9;stroke-width:0.401422"
       id="path1-6-47-3-5"
       cx="48.683331"
       cy="10.583334"
       r="0.52916664" />
    <circle
       style="fill:#f9f9f9;stroke-width:0.401422"
       id="path1-61-4-1-9"
       cx="48.683331"
       cy="12.7"
       r="0.52916664" />
    <path
       style="fill:#ffff00;stroke-width:0.0376632"
       d="M 1.4917501,16.58728 C 1.0299359,16.463115 0.60125498,16.096121 0.38515993,15.639927 L 0.26458333,15.38538 V 12.692467 9.9995552 L 0.39340041,9.7359133 C 0.63248111,9.2466021 1.0694776,8.9038328 1.5966871,8.7920853 1.9661553,8.7137723 6.4016631,8.7147813 6.7720298,8.7932453 7.3004673,8.9052212 7.7176247,9.2395374 7.9585871,9.74417 l 0.1399228,0.293031 0.011414,2.561092 c 0.012798,2.871595 0.015804,2.833161 -0.2543127,3.24953 -0.2447756,0.377307 -0.5920656,0.634971 -0.9984804,0.740801 -0.3236735,0.08428 -5.051294,0.08309 -5.3653797,-0.0013 z m 2.896667,-3.390645 c 0.3681741,-0.147313 0.4468088,-0.61616 0.1508916,-0.899666 -0.1546955,-0.148208 -0.4643077,-0.176827 -0.6527861,-0.06034 -0.3113786,0.192443 -0.3328376,0.689122 -0.03879,0.8978 0.1857926,0.131852 0.3262397,0.148011 0.540684,0.06221 z"
       id="path2" />
    <path
       style="fill:#ffff00;stroke-width:0.0377728"
       d="M 10.025554,16.613543 C 9.3969302,16.444359 8.8951346,15.89917 8.7786384,15.258796 8.7129162,14.897525 8.7247037,10.449877 8.792227,10.131047 8.9371412,9.4468076 9.4443069,8.9376528 10.124687,8.79336 c 0.205984,-0.043684 0.70693,-0.054336 2.580202,-0.054864 1.509415,-4.248e-4 2.403156,0.013705 2.548631,0.040298 0.655861,0.1198913 1.186539,0.6147607 1.355522,1.264056 0.08127,0.312261 0.08604,5.028659 0.0054,5.331776 -0.164616,0.618734 -0.625508,1.07843 -1.250146,1.246902 -0.286699,0.07733 -5.048212,0.0702 -5.338735,-0.008 z m 0.824974,-1.304133 c 0.181324,-0.101993 0.272335,-0.259419 0.272335,-0.471069 0,-0.213442 -0.102298,-0.393845 -0.27188,-0.479461 -0.381561,-0.192638 -0.797915,0.05754 -0.797915,0.479461 0,0.209207 0.08945,0.366621 0.266827,0.469579 0.173871,0.10092 0.35297,0.101422 0.530633,0.0015 z m 4.294083,-4.267758 c 0.114358,-0.07148 0.238556,-0.306899 0.238556,-0.452196 0,-0.160375 -0.130151,-0.38703 -0.269574,-0.469457 -0.06128,-0.03623 -0.187368,-0.06588 -0.280186,-0.06588 -0.415193,0 -0.663971,0.405688 -0.482927,0.787521 0.132402,0.279242 0.513706,0.375276 0.794131,0.200006 z"
       id="path3" />
    <path
       style="fill:#ffff00;stroke-width:0.142349"
       d="m 69.930898,62.698707 c -2.421015,-0.652009 -4.287244,-2.635266 -4.734416,-5.031303 -0.205117,-1.099056 -0.191227,-18.421018 0.01556,-19.404169 0.469219,-2.230869 2.041931,-4.015554 4.254151,-4.827536 l 0.925267,-0.339613 h 9.608541 c 9.004323,0 9.657774,0.01671 10.391459,0.265651 2.218661,0.752811 3.923725,2.653726 4.3965,4.901498 0.206787,0.983151 0.220677,18.305113 0.01556,19.404169 -0.453002,2.427274 -2.32604,4.39521 -4.795448,5.038409 -1.171793,0.305214 -18.940832,0.298924 -20.077174,-0.0071 z m 2.849476,-4.815592 c 0.774639,-0.33007 1.138271,-0.845808 1.210505,-1.716852 0.05133,-0.619028 0.003,-0.874593 -0.239552,-1.267078 -0.978489,-1.58323 -3.476658,-1.077206 -3.788294,0.767348 -0.07534,0.445926 -0.02395,0.712635 0.237306,1.231619 0.526374,1.045635 1.534448,1.430482 2.580035,0.984963 z m 8.349621,-8.184004 c 0.8873,-0.640426 1.154218,-1.747744 0.654316,-2.714446 -0.677026,-1.309225 -2.875209,-1.34116 -3.541954,-0.05146 -0.611268,1.182392 -0.07079,2.672956 1.09595,3.022469 0.576427,0.172678 1.350568,0.06182 1.791688,-0.256565 z m 8.284093,-8.222718 c 1.755369,-1.68175 -0.300221,-4.361385 -2.48088,-3.234037 -0.901425,0.466015 -1.246154,1.918245 -0.676947,2.851762 0.651803,1.068978 2.240344,1.26128 3.157827,0.382275 z"
       id="path4"
       transform="scale(0.26458333)" />
    <path
       style="fill:#ffff00;stroke-width:0.0376628"
       d="m 26.963438,16.585452 c -0.597369,-0.164793 -1.063632,-0.638298 -1.225927,-1.244971 -0.07944,-0.296953 -0.07372,-5.001359 0.0065,-5.309182 0.16682,-0.6404828 0.705244,-1.1422313 1.352106,-1.2600055 0.144627,-0.026331 1.041598,-0.040457 2.542207,-0.040034 1.868549,5.292e-4 2.368233,0.011144 2.573696,0.054684 0.678666,0.1438153 1.184554,0.6512859 1.329101,1.3332615 0.0664,0.31325 0.07843,4.691952 0.014,5.089456 -0.106313,0.655761 -0.609302,1.203868 -1.260412,1.373464 -0.188917,0.04921 -0.586185,0.05724 -2.690037,0.05437 -1.86608,-0.0025 -2.510549,-0.015 -2.641185,-0.05104 z m 0.79348,-1.292109 c 0.507693,-0.25508 0.321541,-1.025601 -0.247902,-1.02612 -0.421742,-3.97e-4 -0.688675,0.521771 -0.440152,0.860997 0.09114,0.124393 0.296013,0.230975 0.443999,0.230975 0.06214,0 0.171965,-0.02963 0.244055,-0.06585 z m 4.254855,-0.01291 c 0.180868,-0.101655 0.271651,-0.258559 0.271651,-0.469509 0,-0.212736 -0.10204,-0.392543 -0.271196,-0.477876 -0.3806,-0.192001 -0.795905,0.05735 -0.795905,0.477876 0,0.208515 0.08922,0.365407 0.266157,0.468025 0.173431,0.100586 0.352079,0.101087 0.529293,0.0015 z M 27.85582,11.010064 c 0.200746,-0.131536 0.26046,-0.528214 0.113323,-0.75278 -0.134511,-0.205295 -0.509365,-0.2814905 -0.733488,-0.149095 -0.139073,0.08215 -0.268897,0.308059 -0.268897,0.467904 0,0.144839 0.12381,0.379304 0.238229,0.451147 0.18776,0.117894 0.455476,0.110829 0.650833,-0.01718 z m 4.223093,-0.0074 c 0.143917,-0.107011 0.187609,-0.179552 0.200256,-0.332494 0.0195,-0.23568 -0.0047,-0.324058 -0.124426,-0.454392 -0.293258,-0.3192665 -0.837954,-0.189102 -0.930765,0.222421 -0.115799,0.513445 0.434717,0.876919 0.854935,0.564465 z"
       id="path5" />
    <path
       style="fill:#ffff00;stroke-width:0.142349"
       d="m 133.81128,62.689952 c -2.08495,-0.560277 -3.91989,-2.404526 -4.47806,-4.50079 -0.21349,-0.801762 -0.23355,-1.890427 -0.19486,-10.573503 l 0.0431,-9.679716 0.52884,-1.10752 c 0.91072,-1.907273 2.48738,-3.17083 4.48462,-3.594046 1.39982,-0.296621 18.16394,-0.300432 19.56035,-0.0044 1.99261,0.422353 3.64425,1.717859 4.54786,3.567224 l 0.48687,0.996442 v 10.177936 10.177936 l -0.45766,0.966206 c -0.84135,1.776241 -2.41954,3.108842 -4.24483,3.584269 -1.21996,0.31776 -19.08938,0.308956 -20.27627,-0.01 z m 3.1181,-4.86099 c 1.41714,-0.722614 1.50812,-2.65974 0.16701,-3.555662 -1.31222,-0.876618 -3.14421,0.14574 -3.14568,1.755472 -9.6e-4,1.059402 0.99569,2.049078 2.06353,2.049078 0.23487,0 0.64669,-0.112 0.91514,-0.248888 z m 15.85099,0.05415 c 0.77464,-0.33007 1.13828,-0.845808 1.21051,-1.716852 0.0513,-0.619028 0.003,-0.874593 -0.23955,-1.267078 -0.97849,-1.58323 -3.47666,-1.077206 -3.7883,0.767348 -0.0753,0.445926 -0.024,0.712635 0.23731,1.231619 0.52637,1.045635 1.53445,1.430482 2.58003,0.984963 z m -7.58464,-8.18189 c 1.14945,-0.824508 1.09746,-2.715624 -0.0949,-3.452551 -0.71236,-0.440262 -1.88255,-0.332095 -2.46723,0.22806 -1.0967,1.050706 -0.84934,2.744168 0.49212,3.369126 0.67072,0.312477 1.515,0.253486 2.07002,-0.144635 z m -8.01682,-7.997793 c 0.43115,-0.269253 0.89938,-1.156097 0.89938,-1.703432 0,-0.604141 -0.49068,-1.457954 -1.01631,-1.768456 -0.23105,-0.136483 -0.7064,-0.248151 -1.05633,-0.248151 -1.56531,0 -2.50322,1.528239 -1.82067,2.966609 0.49917,1.051915 1.93671,1.413676 2.99393,0.75343 z m 15.96373,0.01793 c 0.83308,-0.445852 1.14694,-1.920285 0.59978,-2.817654 -0.62481,-1.024726 -2.15265,-1.252608 -3.05955,-0.456342 -0.959,0.84201 -0.99935,2.164482 -0.0926,3.03325 0.65626,0.62873 1.65189,0.722643 2.55232,0.240746 z"
       id="path6"
       transform="scale(0.26458333)" />
    <path
       style="fill:#800000;stroke-width:0.142349"
       d="m 165.84808,62.692083 c -1.74544,-0.469284 -3.36565,-1.856349 -4.18239,-3.580548 l -0.45572,-0.962068 V 47.971531 37.793595 l 0.48686,-0.996442 c 0.90362,-1.849365 2.55526,-3.144871 4.54786,-3.567224 1.39641,-0.295984 18.16054,-0.292173 19.56035,0.0044 1.99724,0.423216 3.5739,1.686773 4.48463,3.594046 l 0.52884,1.10752 0.0431,9.679716 c 0.0484,10.853271 0.0597,10.708009 -0.96118,12.281688 -0.92513,1.426042 -2.23773,2.399891 -3.77378,2.799878 -1.22334,0.318554 -19.09151,0.314023 -20.2786,-0.0051 z m 3.3754,-5.02005 c 0.5517,-0.392847 0.93469,-1.339171 0.8103,-2.002192 -0.34713,-1.850367 -2.80813,-2.351433 -3.7851,-0.770656 -0.41484,0.671214 -0.33078,1.873939 0.16882,2.415433 0.74294,0.80525 1.95944,0.960203 2.80598,0.357415 z m 15.68472,0.156929 c 1.45474,-0.730887 1.51665,-2.737759 0.1109,-3.594855 -1.40333,-0.855617 -3.21823,0.319348 -3.04963,1.974326 0.0348,0.341684 0.18698,0.790083 0.33816,0.996442 0.34445,0.470145 1.11881,0.872975 1.67814,0.872975 0.23487,0 0.64997,-0.112 0.92243,-0.248888 z m -15.99373,-8.015454 c 1.49333,-0.722908 1.52167,-2.86212 0.048,-3.624181 -0.52888,-0.273497 -1.46179,-0.268948 -2.00074,0.0098 -1.48788,0.769413 -1.22824,3.276514 0.38952,3.761316 0.64211,0.192421 0.91534,0.166747 1.56322,-0.14689 z m 16.28126,-0.112283 c 1.14945,-0.824508 1.09746,-2.715624 -0.0949,-3.452551 -0.71236,-0.440262 -1.88255,-0.332095 -2.46723,0.22806 -1.0967,1.050706 -0.84934,2.744168 0.49212,3.369126 0.67072,0.312477 1.515,0.253486 2.07002,-0.144635 z m -15.78164,-8.224832 c 1.75537,-1.68175 -0.30022,-4.361385 -2.48088,-3.234037 -0.90143,0.466015 -1.24615,1.918245 -0.67695,2.851762 0.6518,1.068978 2.24034,1.26128 3.15783,0.382275 z m 15.86792,0.163812 c 0.75874,-0.497145 0.98444,-1.996402 0.42832,-2.845153 -0.5084,-0.775919 -1.9252,-1.063902 -2.7723,-0.563508 -0.52564,0.310502 -1.01632,1.164315 -1.01632,1.768456 0,0.547423 0.46795,1.433587 0.90042,1.705123 0.70966,0.445583 1.72151,0.418879 2.45988,-0.06492 z"
       id="path7"
       transform="scale(0.26458333)" />
    <path
       style="fill:#800000;stroke-width:0.142349"
       d="m 15.234154,49.722115 c -1.039511,-0.537027 -1.432704,-1.769678 -0.862693,-2.704527 0.773316,-1.268281 2.711112,-1.157248 3.351385,0.192029 0.745321,1.570647 -0.966527,3.29887 -2.488692,2.512498 z"
       id="path8"
       transform="scale(0.26458333)" />
    <path
       style="fill:#800000;stroke-width:0.142349"
       d="m 39.15075,57.694287 c -0.928559,-0.482865 -1.332937,-1.864425 -0.788788,-2.694902 1.018743,-1.554798 3.488596,-0.917022 3.513774,0.907341 0.02061,1.493674 -1.44336,2.454026 -2.724986,1.787561 z"
       id="path9"
       transform="scale(0.26458333)" />
    <path
       style="fill:#800000;stroke-width:0.142349"
       d="m 55.545772,41.842282 c -1.602422,-0.343851 -1.950401,-2.560374 -0.546387,-3.48032 0.733576,-0.480657 2.098132,-0.186027 2.585853,0.558329 0.944615,1.441666 -0.342732,3.286079 -2.039466,2.921991 z"
       id="path10"
       transform="scale(0.26458333)" />
    <path
       style="fill:#800000;stroke-width:0.142349"
       d="m 71.233479,57.733607 c -0.978867,-0.426199 -1.414644,-1.538247 -0.963462,-2.458634 0.695221,-1.418212 2.542906,-1.576819 3.330053,-0.285855 0.573158,0.94001 0.197045,2.256004 -0.776851,2.718148 -0.579209,0.274852 -1.002853,0.281872 -1.58974,0.02634 z"
       id="path11"
       transform="scale(0.26458333)" />
    <path
       style="fill:#800000;stroke-width:0.142349"
       d="m 79.217083,49.696022 c -1.191002,-0.548316 -1.473888,-1.997096 -0.580333,-2.972133 0.461572,-0.503663 0.533501,-0.531718 1.363251,-0.531718 0.82975,0 0.901679,0.02805 1.363251,0.531718 0.910308,0.993318 0.577612,2.518596 -0.657121,3.012639 -0.709782,0.283998 -0.788861,0.281847 -1.489048,-0.04051 z"
       id="path12"
       transform="scale(0.26458333)" />
    <path
       style="fill:#800000;stroke-width:0.142349"
       d="m 87.561377,41.839651 c -0.26473,-0.05674 -0.6811,-0.302928 -0.925266,-0.547094 C 86.238381,40.894827 86.192172,40.760286 86.192172,40 c 0,-0.758484 0.04669,-0.895305 0.439574,-1.288191 0.549636,-0.549637 1.2664,-0.727919 1.963299,-0.488337 0.712061,0.244795 0.889735,0.419346 1.167694,1.147172 0.225537,0.590561 0.225545,0.668131 1.27e-4,1.258379 -0.355079,0.929762 -1.240387,1.416605 -2.201489,1.210628 z"
       id="path13"
       transform="scale(0.26458333)" />
    <path
       style="fill:#800000;stroke-width:0.142349"
       d="m 103.41766,41.771108 c -0.68089,-0.234079 -1.02223,-0.557805 -1.22,-1.157029 -0.42599,-1.290768 0.50155,-2.509053 1.89562,-2.489814 1.7759,0.02451 2.46573,2.382002 0.99784,3.41011 -0.53588,0.375323 -1.05621,0.448932 -1.67346,0.236733 z"
       id="path14"
       transform="scale(0.26458333)" />
    <path
       style="fill:#800000;stroke-width:0.142349"
       d="m 103.09479,57.652015 c -0.90049,-0.549034 -1.25643,-1.574001 -0.83073,-2.392179 0.75198,-1.445286 2.63399,-1.533988 3.39195,-0.159869 0.35498,0.64355 0.26703,1.581157 -0.19468,2.075447 -0.73763,0.789676 -1.57611,0.958537 -2.36654,0.476601 z"
       id="path15"
       transform="scale(0.26458333)" />
    <path
       style="fill:#800000;stroke-width:0.142349"
       d="m 118.98545,41.61086 c -1.13136,-0.702151 -1.11772,-2.554273 0.0238,-3.228576 0.84556,-0.499484 2.1247,-0.192044 2.60849,0.626945 0.49948,0.845558 0.19204,2.124699 -0.62695,2.608488 -0.50239,0.296769 -1.5217,0.293284 -2.00532,-0.0069 z"
       id="path16"
       transform="scale(0.26458333)" />
    <path
       style="fill:#800000;stroke-width:0.142349"
       d="m 119.15075,57.694287 c -0.92856,-0.482865 -1.33294,-1.864425 -0.78879,-2.694902 1.01875,-1.554798 3.4886,-0.917022 3.51378,0.907341 0.0206,1.493674 -1.44336,2.454026 -2.72499,1.787561 z"
       id="path17"
       transform="scale(0.26458333)" />
    <path
       style="fill:#800000;stroke-width:0.142349"
       d="m 135.16014,57.671095 c -0.67796,-0.418775 -0.95426,-0.817074 -1.02191,-1.473147 -0.22803,-2.211279 2.80311,-2.881808 3.66131,-0.809931 0.34699,0.837715 -0.17916,1.969872 -1.09289,2.351653 -0.63246,0.264261 -1.03669,0.246337 -1.54651,-0.06857 z"
       id="path18"
       transform="scale(0.26458333)" />
    <path
       style="fill:#800000;stroke-width:0.142349"
       d="m 143.21297,49.722115 c -0.98191,-0.514835 -1.3785,-1.57961 -0.93581,-2.512498 0.64027,-1.349277 2.57806,-1.46031 3.35138,-0.192029 0.94968,1.55753 -0.82135,3.540413 -2.41557,2.704527 z"
       id="path19"
       transform="scale(0.26458333)" />
    <path
       style="fill:#800000;stroke-width:0.142349"
       d="m 151.51742,41.827597 c -0.61634,-0.162195 -1.14606,-0.698827 -1.34488,-1.362418 -0.30461,-1.016704 0.4636,-2.203405 1.50006,-2.317231 0.73957,-0.08122 1.1021,0.02929 1.60351,0.488801 0.50192,0.459968 0.53172,0.535619 0.53172,1.349576 0,0.773766 -0.0451,0.907422 -0.43957,1.301867 -0.50159,0.501589 -1.21,0.708047 -1.85084,0.539405 z"
       id="path20"
       transform="scale(0.26458333)" />
    <path
       style="fill:#800000;stroke-width:0.142349"
       d="m 135.54577,41.842282 c -1.60242,-0.343851 -1.9504,-2.560374 -0.54638,-3.48032 0.73357,-0.480657 2.09813,-0.186027 2.58585,0.558329 0.94461,1.441666 -0.34273,3.286079 -2.03947,2.921991 z"
       id="path21"
       transform="scale(0.26458333)" />
    <path
       style="fill:#800000;stroke-width:0.142349;fill-opacity:1"
       d="m 151.23348,57.733607 c -0.97887,-0.426199 -1.41464,-1.538247 -0.96346,-2.458634 0.69522,-1.418212 2.5429,-1.576819 3.33005,-0.285855 0.57316,0.94001 0.19705,2.256004 -0.77685,2.718148 -0.57921,0.274852 -1.00285,0.281872 -1.58974,0.02634 z"
       id="path22"
       transform="scale(0.26458333)" />
    <path
       style="fill:#ffff00;fill-opacity:1;stroke-width:0.142349"
       d="m 165.85119,62.69288 c -1.77112,-0.47628 -3.35711,-1.832402 -4.18356,-3.577207 l -0.45766,-0.966206 V 47.971531 37.793595 l 0.48686,-0.996442 c 0.90362,-1.849365 2.55526,-3.144871 4.54786,-3.567224 1.39641,-0.295984 18.16054,-0.292173 19.56035,0.0044 1.99724,0.423216 3.5739,1.686773 4.48463,3.594046 l 0.52884,1.10752 0.0431,9.679716 c 0.0484,10.853271 0.0597,10.708009 -0.96118,12.281688 -0.92513,1.426042 -2.23773,2.399891 -3.77378,2.799878 -1.22087,0.31791 -19.09137,0.314082 -20.27549,-0.0043 z m 3.37739,-5.024482 c 0.24306,-0.173069 0.53546,-0.584313 0.6747,-0.948903 0.21006,-0.550015 0.22014,-0.728915 0.0694,-1.231957 -0.47069,-1.571036 -2.30387,-2.05315 -3.42166,-0.899876 -0.3909,0.403302 -0.48793,0.627937 -0.53739,1.24407 -0.0496,0.617282 -2.4e-4,0.841097 0.27544,1.250119 0.67379,0.999683 1.99036,1.262392 2.93949,0.586547 z m 15.94783,0.02397 c 1.60255,-1.174086 0.77613,-3.739852 -1.20518,-3.741657 -1.58637,-0.0014 -2.60822,1.981917 -1.66913,3.239722 0.66042,0.88456 2.02644,1.123105 2.87431,0.501935 z m -16.07822,-7.982144 c 0.65712,-0.490612 0.92097,-0.983767 0.92097,-1.721339 0,-0.804749 -0.28657,-1.325965 -0.95216,-1.731803 -0.55132,-0.336164 -1.51597,-0.36274 -2.10527,-0.058 -1.16351,0.601672 -1.32836,2.45287 -0.30121,3.382429 0.62337,0.564137 1.77315,0.624848 2.43767,0.128713 z m 16.13425,-0.05665 c 1.05527,-0.751418 1.07837,-2.274518 0.0491,-3.236081 -0.55127,-0.514994 -1.69742,-0.577266 -2.36338,-0.128406 -1.36691,0.921298 -1.28693,2.755086 0.15288,3.505445 0.74062,0.385974 1.49004,0.3371 2.16141,-0.140958 z m -15.83501,-8.161229 c 1.3603,-1.303243 0.46902,-3.485231 -1.42361,-3.485231 -1.1756,0 -1.99363,0.805614 -1.99464,1.964364 -0.001,1.323971 0.81634,2.071457 2.17043,1.984569 0.66816,-0.04287 0.89755,-0.128117 1.24782,-0.463702 z m 15.73852,0.23211 c 0.83542,-0.509437 1.13772,-1.707924 0.67616,-2.680605 -0.32775,-0.690684 -0.94579,-1.035551 -1.85698,-1.036204 -0.62724,-4.5e-4 -0.82014,0.06775 -1.24379,0.439716 -0.99806,0.876306 -0.99806,2.228962 0,3.105269 0.42365,0.371968 0.61655,0.440165 1.24379,0.439716 0.47502,-3.41e-4 0.90028,-0.09682 1.18082,-0.267892 z"
       id="path23"
       transform="scale(0.26458333)" />
    <path
       style="fill:#800000;fill-opacity:1;stroke-width:0.142349"
       d="M 166.72389,41.363252 C 166.22023,40.901679 166.19217,40.829751 166.19217,40 c 0,-0.82975 0.0281,-0.901678 0.53172,-1.363251 0.45013,-0.412512 0.63579,-0.487201 1.20996,-0.48675 0.93343,7.32e-4 1.50715,0.378186 1.82001,1.197381 0.23558,0.616878 0.23595,0.687393 0.007,1.287517 -0.30731,0.804696 -0.93052,1.215637 -1.84357,1.215637 -0.55465,0 -0.74729,-0.07867 -1.19316,-0.487282 z"
       id="path24"
       transform="scale(0.26458333)" />
    <path
       style="fill:#800000;fill-opacity:1;stroke-width:0.142349"
       d="m 167.32391,49.770972 c -0.71138,-0.320978 -1.20299,-1.017521 -1.20238,-1.703601 0.001,-1.142866 0.82751,-1.946374 2.00203,-1.946374 0.49706,0 0.68087,0.08766 1.13405,0.540841 0.67552,0.675514 0.83468,1.353067 0.48898,2.081575 -0.45561,0.960124 -1.54659,1.422854 -2.42268,1.027559 z"
       id="path25"
       transform="scale(0.26458333)" />
    <path
       style="fill:#800000;fill-opacity:1;stroke-width:0.142349"
       d="m 167.15391,57.701829 c -0.95616,-0.47137 -1.32076,-1.783154 -0.75398,-2.712711 0.78715,-1.290964 2.63483,-1.132357 3.33006,0.285855 0.45807,0.934449 0.01,2.044903 -0.99487,2.464697 -0.60647,0.253399 -1.01002,0.243741 -1.58121,-0.03784 z"
       id="path26"
       transform="scale(0.26458333)" />
    <path
       style="fill:#800000;fill-opacity:1;stroke-width:0.142349"
       d="m 183.09479,57.652015 c -0.90049,-0.549034 -1.25643,-1.574001 -0.83073,-2.392179 0.75198,-1.445286 2.63399,-1.533988 3.39195,-0.159869 0.35498,0.64355 0.26703,1.581157 -0.19468,2.075447 -0.73763,0.789676 -1.57611,0.958537 -2.36654,0.476601 z"
       id="path27"
       transform="scale(0.26458333)" />
    <path
       style="fill:#800000;fill-opacity:1;stroke-width:0.142349"
       d="m 183.21297,49.722115 c -0.98191,-0.514835 -1.3785,-1.57961 -0.93581,-2.512498 0.64027,-1.349277 2.57806,-1.46031 3.35138,-0.192029 0.94968,1.55753 -0.82135,3.540413 -2.41557,2.704527 z"
       id="path28"
       transform="scale(0.26458333)" />
    <path
       style="fill:#800000;fill-opacity:1;stroke-width:0.142349"
       d="m 183.41766,41.771108 c -0.68089,-0.234079 -1.02223,-0.557805 -1.22,-1.157029 -0.42599,-1.290768 0.50155,-2.509053 1.89562,-2.489814 1.7759,0.02451 2.46573,2.382002 0.99784,3.41011 -0.53587,0.375323 -1.05621,0.448932 -1.67346,0.236733 z"
       id="path29"
       transform="scale(0.26458333)" />
    <path
       style="fill:#ffff00;fill-opacity:1;stroke-width:0.142349"
       d="m 15.160143,17.671095 c -0.677965,-0.418775 -0.954264,-0.817074 -1.021918,-1.473147 -0.228027,-2.21128 2.803114,-2.881808 3.661314,-0.809931 0.346993,0.837715 -0.179157,1.969871 -1.092889,2.351653 -0.632464,0.264261 -1.03669,0.246336 -1.546507,-0.06857 z"
       id="path30"
       transform="scale(0.26458333)" />
    <path
       style="fill:#ffff00;fill-opacity:1;stroke-width:0.142349"
       d="m 39.068642,25.642273 c -0.899075,-0.548272 -1.201473,-1.622964 -0.719129,-2.555713 0.902337,-1.744927 3.554053,-1.00983 3.526624,0.977634 -0.01937,1.40324 -1.619392,2.302607 -2.807495,1.578079 z"
       id="path31"
       transform="scale(0.26458333)" />
    <path
       style="fill:#ffff00;fill-opacity:1;stroke-width:0.142349"
       d="M 55.234155,9.7221143 C 54.194643,9.1850878 53.801451,7.9524365 54.371462,7.0175871 c 0.773316,-1.2682805 2.711111,-1.1572479 3.351385,0.192029 0.745321,1.5706471 -0.966527,3.2988699 -2.488692,2.5124982 z"
       id="path32"
       transform="scale(0.26458333)" />
    <path
       style="fill:#ffff00;fill-opacity:1;stroke-width:0.142349"
       d="m 71.017493,25.58531 c -0.984236,-0.655561 -1.216763,-1.864529 -0.527217,-2.741144 0.325953,-0.414382 1.051536,-0.780109 1.547697,-0.780109 0.518359,0 1.254179,0.43637 1.55409,0.921637 1.053916,1.705272 -0.921951,3.700361 -2.57457,2.599616 z"
       id="path33"
       transform="scale(0.26458333)" />
    <path
       style="fill:#ffff00;fill-opacity:1;stroke-width:0.142349"
       d="m 79.150751,17.694287 c -0.92856,-0.482865 -1.332938,-1.864426 -0.788789,-2.694903 1.018743,-1.554797 3.488596,-0.917022 3.513774,0.907342 0.02061,1.493674 -1.44336,2.454025 -2.724985,1.787561 z"
       id="path34"
       transform="scale(0.26458333)" />
    <path
       style="fill:#ffff00;fill-opacity:1;stroke-width:0.142349"
       d="m 87.323905,9.7709712 c -0.711381,-0.3209775 -1.20299,-1.0175207 -1.202375,-1.703601 10e-4,-1.1428654 0.827507,-1.9463737 2.002028,-1.9463737 0.497061,0 0.680872,0.087661 1.134052,0.5408411 0.675514,0.6755144 0.834676,1.3530671 0.488977,2.0815749 -0.455609,0.9601241 -1.546591,1.4228545 -2.422682,1.0275587 z"
       id="path35"
       transform="scale(0.26458333)" />
    <path
       style="fill:#ffff00;fill-opacity:1;stroke-width:0.142349"
       d="m 103.21297,9.7221143 c -0.98191,-0.5148343 -1.3785,-1.5796102 -0.93581,-2.5124982 0.64027,-1.3492769 2.57806,-1.4603095 3.35138,-0.192029 0.94968,1.5575309 -0.82135,3.5404129 -2.41557,2.7045272 z"
       id="path36"
       transform="scale(0.26458333)" />
    <path
       style="fill:#ffff00;fill-opacity:1;stroke-width:0.142349"
       d="m 103.3452,25.806943 c -0.33197,-0.121352 -0.86067,-0.643026 -1.08114,-1.066778 -0.4257,-0.818178 -0.0698,-1.843145 0.83073,-2.392179 1.56926,-0.956795 3.45838,0.92556 2.56122,2.552048 -0.42889,0.777534 -1.50712,1.200702 -2.31081,0.906909 z"
       id="path37"
       transform="scale(0.26458333)" />
    <path
       style="fill:#ffff00;fill-opacity:1;stroke-width:0.142349"
       d="m 119.06864,25.642273 c -0.89907,-0.548272 -1.20147,-1.622964 -0.71913,-2.555713 0.90234,-1.744927 3.55406,-1.00983 3.52663,0.977634 -0.0194,1.40324 -1.61939,2.302607 -2.8075,1.578079 z"
       id="path38"
       transform="scale(0.26458333)" />
    <path
       style="fill:#ffff00;fill-opacity:1;stroke-width:0.142349"
       d="m 119.21708,9.6960212 c -1.191,-0.5483158 -1.47388,-1.9970961 -0.58033,-2.9721329 0.46157,-0.5036627 0.5335,-0.5317174 1.36325,-0.5317174 0.82975,0 0.90168,0.028055 1.36325,0.5317174 0.91031,0.9933183 0.57761,2.5185965 -0.65712,3.0126389 -0.70978,0.2839988 -0.78886,0.2818478 -1.48905,-0.040506 z"
       id="path39"
       transform="scale(0.26458333)" />
    <path
       style="fill:#ffff00;fill-opacity:1;stroke-width:0.142349"
       d="m 135.23416,9.7221143 c -1.03952,-0.5370265 -1.43271,-1.7696778 -0.8627,-2.7045272 0.77332,-1.2682805 2.71111,-1.1572479 3.35139,0.192029 0.74532,1.5706471 -0.96653,3.2988699 -2.48869,2.5124982 z"
       id="path40"
       transform="scale(0.26458333)" />
    <path
       style="fill:#ffff00;fill-opacity:1;stroke-width:0.142349"
       d="m 143.09479,17.652015 c -0.90049,-0.549035 -1.25643,-1.574001 -0.83073,-2.39218 0.75198,-1.445285 2.63399,-1.533988 3.39195,-0.159868 0.35498,0.64355 0.26703,1.581157 -0.19468,2.075447 -0.73763,0.789676 -1.57611,0.958537 -2.36654,0.476601 z"
       id="path41"
       transform="scale(0.26458333)" />
    <path
       style="fill:#ffff00;fill-opacity:1;stroke-width:0.142349"
       d="m 135.09997,25.656006 c -1.37412,-0.757961 -1.28542,-2.639969 0.15987,-3.391951 0.81817,-0.425698 1.84314,-0.06976 2.39218,0.83073 0.95679,1.569268 -0.92556,3.458389 -2.55205,2.561221 z"
       id="path42"
       transform="scale(0.26458333)" />
    <path
       style="fill:#ffff00;fill-opacity:1;stroke-width:0.142349"
       d="m 151.20544,9.7276751 c -1.31105,-0.6461906 -1.49267,-2.1896915 -0.37329,-3.1725171 1.19592,-1.0500319 3.04485,-0.1322128 3.04632,1.5122122 6.3e-4,0.7017747 -0.50367,1.39781 -1.2338,1.7028753 -0.59565,0.2488815 -0.86401,0.2409435 -1.43923,-0.04257 z"
       id="path43"
       transform="scale(0.26458333)" />
    <path
       style="fill:#ffff00;fill-opacity:1;stroke-width:0.142349"
       d="m 151.01749,25.58531 c -0.98423,-0.655561 -1.21676,-1.864529 -0.52721,-2.741144 0.32595,-0.414382 1.05153,-0.780109 1.54769,-0.780109 0.51836,0 1.25418,0.43637 1.55409,0.921637 1.05392,1.705272 -0.92195,3.700361 -2.57457,2.599616 z"
       id="path44"
       transform="scale(0.26458333)" />
    <path
       style="fill:#ffff00;fill-opacity:1;stroke-width:0.142349"
       d="m 167.01759,25.628539 c -1.25172,-0.763216 -1.15879,-2.710378 0.15919,-3.335804 0.59016,-0.280049 0.94785,-0.287486 1.55834,-0.0324 1.00471,0.419794 1.45294,1.530248 0.99487,2.464697 -0.52643,1.073886 -1.7594,1.484592 -2.7124,0.903511 z"
       id="path45"
       transform="scale(0.26458333)" />
    <path
       style="fill:#ffff00;fill-opacity:1;stroke-width:0.142349"
       d="m 167.15391,17.701829 c -0.95616,-0.47137 -1.32076,-1.783155 -0.75398,-2.712712 0.78715,-1.290964 2.63483,-1.132356 3.33006,0.285856 0.45807,0.934449 0.01,2.044902 -0.99487,2.464697 -0.60647,0.253398 -1.01002,0.24374 -1.58121,-0.03784 z"
       id="path46"
       transform="scale(0.26458333)" />
    <path
       style="fill:#ffff00;fill-opacity:1;stroke-width:0.142349"
       d="m 167.32391,9.7709712 c -0.71138,-0.3209775 -1.20299,-1.0175207 -1.20238,-1.703601 0.001,-1.1428654 0.82751,-1.9463737 2.00203,-1.9463737 0.49706,0 0.68087,0.087661 1.13405,0.5408411 0.67552,0.6755144 0.83468,1.3530671 0.48898,2.0815749 -0.45561,0.9601241 -1.54659,1.4228545 -2.42268,1.0275587 z"
       id="path47"
       transform="scale(0.26458333)" />
    <path
       style="fill:#ffff00;fill-opacity:1;stroke-width:0.142349"
       d="m 183.21297,9.7221143 c -0.98191,-0.5148343 -1.3785,-1.5796102 -0.93581,-2.5124982 0.64027,-1.3492769 2.57806,-1.4603095 3.35138,-0.192029 0.94968,1.5575309 -0.82135,3.5404129 -2.41557,2.7045272 z"
       id="path48"
       transform="scale(0.26458333)" />
    <path
       style="fill:#ffff00;fill-opacity:1;stroke-width:0.142349"
       d="m 183.09479,17.652015 c -0.90049,-0.549035 -1.25643,-1.574001 -0.83073,-2.39218 0.75198,-1.445285 2.63399,-1.533988 3.39195,-0.159868 0.35498,0.64355 0.26703,1.581157 -0.19468,2.075447 -0.73763,0.789676 -1.57611,0.958537 -2.36654,0.476601 z"
       id="path49"
       transform="scale(0.26458333)" />
    <path
       style="fill:#ffff00;fill-opacity:1;stroke-width:0.142349"
       d="m 183.3452,25.806943 c -0.33197,-0.121352 -0.86067,-0.643026 -1.08114,-1.066778 -0.4257,-0.818178 -0.0698,-1.843145 0.83073,-2.392179 1.56926,-0.956795 3.45839,0.92556 2.56122,2.552048 -0.42889,0.777534 -1.50712,1.200702 -2.31081,0.906909 z"
       id="path50"
       transform="scale(0.26458333)" />
    <path
       sodipodi:type="star"
       style="fill:#008080;fill-opacity:1;stroke-width:0.264583"
       id="path52"
       inkscape:flatsided="true"
       sodipodi:sides="3"
       sodipodi:cx="0.5936963"
       sodipodi:cy="17.576975"
       sodipodi:r1="5.6493931"
       sodipodi:r2="2.72193"
       sodipodi:arg1="1.537833"
       sodipodi:arg2="2.5850306"
       inkscape:rounded="0.079672358"
       inkscape:randomized="0.004"
       d="m 0.76934782,23.22802 c -0.77872044,0.02597 -5.54321112,-7.623099 -5.17854412,-8.31077 0.364667,-0.68767 9.3818574,-0.994397 9.7937342,-0.332402 0.4118769,0.661994 -3.8364696,8.617207 -4.61519008,8.643172 z"
       inkscape:transform-center-x="0.15207497"
       inkscape:transform-center-y="-0.81244412"
       transform="matrix(0.80511629,0.03892348,-0.04238372,0.88205865,4.3355981,4.5719033)" />
    <text
       xml:space="preserve"
       style="font-size:3.33267px;fill:#f9f9f9;fill-opacity:1;stroke-width:0.277722"
       x="3.2453394"
       y="20.370136"
       id="text52"
       transform="scale(0.95268952,1.0496599)"><tspan
         sodipodi:role="line"
         id="tspan52"
         style="fill:#f9f9f9;stroke-width:0.277722"
         x="3.2453394"
         y="20.370136">1</tspan></text>
    <path
       sodipodi:type="star"
       style="fill:#008080;fill-opacity:1;stroke-width:0.264583"
       id="path52-9"
       inkscape:flatsided="true"
       sodipodi:sides="3"
       sodipodi:cx="0.5936963"
       sodipodi:cy="17.576975"
       sodipodi:r1="5.6493931"
       sodipodi:r2="2.72193"
       sodipodi:arg1="1.537833"
       sodipodi:arg2="2.5850306"
       inkscape:rounded="0.079672358"
       inkscape:randomized="0.004"
       d="m 0.76934782,23.22802 c -0.77872044,0.02597 -5.54321112,-7.623099 -5.17854412,-8.31077 0.364667,-0.68767 9.3818574,-0.994397 9.7937342,-0.332402 0.4118769,0.661994 -3.8364696,8.617207 -4.61519008,8.643172 z"
       inkscape:transform-center-x="0.15207497"
       inkscape:transform-center-y="-0.81244412"
       transform="matrix(0.80511629,0.03892348,-0.04238372,0.88205865,38.334318,4.6169886)" />
    <text
       xml:space="preserve"
       style="font-size:3.33267px;fill:#f9f9f9;fill-opacity:1;stroke-width:0.277722"
       x="38.932434"
       y="20.41309"
       id="text52-1"
       transform="scale(0.95268953,1.0496599)"><tspan
         sodipodi:role="line"
         id="tspan52-7"
         style="fill:#f9f9f9;stroke-width:0.277722"
         x="38.932434"
         y="20.41309">5</tspan></text>
    <path
       sodipodi:type="star"
       style="fill:#008080;fill-opacity:1;stroke-width:0.264583"
       id="path52-5"
       inkscape:flatsided="true"
       sodipodi:sides="3"
       sodipodi:cx="0.5936963"
       sodipodi:cy="17.576975"
       sodipodi:r1="5.6493931"
       sodipodi:r2="2.72193"
       sodipodi:arg1="1.537833"
       sodipodi:arg2="2.5850306"
       inkscape:rounded="0.079672358"
       inkscape:randomized="0.004"
       d="m 0.76934782,23.22802 c -0.77872044,0.02597 -5.54321112,-7.623099 -5.17854412,-8.31077 0.364667,-0.68767 9.3818574,-0.994397 9.7937342,-0.332402 0.4118769,0.661994 -3.8364696,8.617207 -4.61519008,8.643172 z"
       inkscape:transform-center-x="0.15207497"
       inkscape:transform-center-y="-0.81244412"
       transform="matrix(0.80511629,0.03892348,-0.04238372,0.88205865,46.800985,4.6169886)" />
    <text
       xml:space="preserve"
       style="font-size:3.33267px;fill:#f9f9f9;fill-opacity:1;stroke-width:0.277722"
       x="47.81955"
       y="20.413088"
       id="text52-9"
       transform="scale(0.95268953,1.0496599)"><tspan
         sodipodi:role="line"
         id="tspan52-77"
         style="fill:#f9f9f9;stroke-width:0.277722"
         x="47.81955"
         y="20.413088">6</tspan></text>
    <path
       sodipodi:type="star"
       style="fill:#008080;fill-opacity:1;stroke-width:0.264583"
       id="path52-6"
       inkscape:flatsided="true"
       sodipodi:sides="3"
       sodipodi:cx="0.5936963"
       sodipodi:cy="17.576975"
       sodipodi:r1="5.6493931"
       sodipodi:r2="2.72193"
       sodipodi:arg1="1.537833"
       sodipodi:arg2="2.5850306"
       inkscape:rounded="0.079672358"
       inkscape:randomized="0.004"
       d="m 0.76934782,23.22802 c -0.77872044,0.02597 -5.54321112,-7.623099 -5.17854412,-8.31077 0.364667,-0.68767 9.3818574,-0.994397 9.7937342,-0.332402 0.4118769,0.661994 -3.8364696,8.617207 -4.61519008,8.643172 z"
       inkscape:transform-center-x="0.15207497"
       inkscape:transform-center-y="-0.81244412"
       transform="matrix(0.80511629,0.03892348,-0.04238372,0.88205865,55.267651,4.6169886)" />
    <text
       xml:space="preserve"
       style="font-size:3.33267px;fill:#f9f9f9;fill-opacity:1;stroke-width:0.277722"
       x="56.706676"
       y="20.41309"
       id="text52-5"
       transform="scale(0.95268953,1.0496599)"><tspan
         sodipodi:role="line"
         id="tspan52-6"
         style="fill:#f9f9f9;stroke-width:0.277722"
         x="56.706676"
         y="20.41309">7</tspan></text>
    <path
       sodipodi:type="star"
       style="fill:#008080;fill-opacity:1;stroke-width:0.264583"
       id="path52-8"
       inkscape:flatsided="true"
       sodipodi:sides="3"
       sodipodi:cx="0.5936963"
       sodipodi:cy="17.576975"
       sodipodi:r1="5.6493931"
       sodipodi:r2="2.72193"
       sodipodi:arg1="1.537833"
       sodipodi:arg2="2.5850306"
       inkscape:rounded="0.079672358"
       inkscape:randomized="0.004"
       d="m 0.76934782,23.22802 c -0.77872044,0.02597 -5.54321112,-7.623099 -5.17854412,-8.31077 0.364667,-0.68767 9.3818574,-0.994397 9.7937342,-0.332402 0.4118769,0.661994 -3.8364696,8.617207 -4.61519008,8.643172 z"
       inkscape:transform-center-x="0.15207497"
       inkscape:transform-center-y="-0.81244412"
       transform="matrix(0.80511629,0.03892348,-0.04238372,0.88205865,63.734318,4.6169886)" />
    <text
       xml:space="preserve"
       style="font-size:3.33267px;fill:#f9f9f9;fill-opacity:1;stroke-width:0.277722"
       x="65.593788"
       y="20.413088"
       id="text52-12"
       transform="scale(0.95268953,1.0496599)"><tspan
         sodipodi:role="line"
         id="tspan52-9"
         style="fill:#f9f9f9;stroke-width:0.277722"
         x="65.593788"
         y="20.413088">8</tspan></text>
    <path
       sodipodi:type="star"
       style="fill:#008080;fill-opacity:1;stroke-width:0.264583"
       id="path52-88"
       inkscape:flatsided="true"
       sodipodi:sides="3"
       sodipodi:cx="0.5936963"
       sodipodi:cy="17.576975"
       sodipodi:r1="5.6493931"
       sodipodi:r2="2.72193"
       sodipodi:arg1="1.537833"
       sodipodi:arg2="2.5850306"
       inkscape:rounded="0.079672358"
       inkscape:randomized="0.004"
       d="m 0.76934782,23.22802 c -0.77872044,0.02597 -5.54321112,-7.623099 -5.17854412,-8.31077 0.364667,-0.68767 9.3818574,-0.994397 9.7937342,-0.332402 0.4118769,0.661994 -3.8364696,8.617207 -4.61519008,8.643172 z"
       inkscape:transform-center-x="0.15207497"
       inkscape:transform-center-y="-0.81244412"
       transform="matrix(0.80511629,0.03892348,-0.04238372,0.88205865,12.934319,4.6169886)" />
    <text
       xml:space="preserve"
       style="font-size:3.33267px;fill:#f9f9f9;fill-opacity:1;stroke-width:0.277722"
       x="12.271072"
       y="20.413088"
       id="text52-50"
       transform="scale(0.95268953,1.0496599)"><tspan
         sodipodi:role="line"
         id="tspan52-96"
         style="fill:#f9f9f9;stroke-width:0.277722"
         x="12.271072"
         y="20.413088">2</tspan></text>
    <path
       sodipodi:type="star"
       style="fill:#008080;fill-opacity:1;stroke-width:0.264583"
       id="path52-61"
       inkscape:flatsided="true"
       sodipodi:sides="3"
       sodipodi:cx="0.5936963"
       sodipodi:cy="17.576975"
       sodipodi:r1="5.6493931"
       sodipodi:r2="2.72193"
       sodipodi:arg1="1.537833"
       sodipodi:arg2="2.5850306"
       inkscape:rounded="0.079672358"
       inkscape:randomized="0.004"
       d="m 0.76934782,23.22802 c -0.77872044,0.02597 -5.54321112,-7.623099 -5.17854412,-8.31077 0.364667,-0.68767 9.3818574,-0.994397 9.7937342,-0.332402 0.4118769,0.661994 -3.8364696,8.617207 -4.61519008,8.643172 z"
       inkscape:transform-center-x="0.15207497"
       inkscape:transform-center-y="-0.81244412"
       transform="matrix(0.80511629,0.03892348,-0.04238372,0.88205865,21.400985,4.6169886)" />
    <text
       xml:space="preserve"
       style="font-size:3.33267px;fill:#f9f9f9;fill-opacity:1;stroke-width:0.277722"
       x="21.158192"
       y="20.41309"
       id="text52-15"
       transform="scale(0.95268953,1.0496599)"><tspan
         sodipodi:role="line"
         id="tspan52-98"
         style="fill:#f9f9f9;stroke-width:0.277722"
         x="21.158192"
         y="20.41309">3</tspan></text>
    <path
       sodipodi:type="star"
       style="fill:#008080;fill-opacity:1;stroke-width:0.264583"
       id="path52-0"
       inkscape:flatsided="true"
       sodipodi:sides="3"
       sodipodi:cx="0.5936963"
       sodipodi:cy="17.576975"
       sodipodi:r1="5.6493931"
       sodipodi:r2="2.72193"
       sodipodi:arg1="1.537833"
       sodipodi:arg2="2.5850306"
       inkscape:rounded="0.079672358"
       inkscape:randomized="0.004"
       d="m 0.76934782,23.22802 c -0.77872044,0.02597 -5.54321112,-7.623099 -5.17854412,-8.31077 0.364667,-0.68767 9.3818574,-0.994397 9.7937342,-0.332402 0.4118769,0.661994 -3.8364696,8.617207 -4.61519008,8.643172 z"
       inkscape:transform-center-x="0.15207497"
       inkscape:transform-center-y="-0.81244412"
       transform="matrix(0.80511629,0.03892348,-0.04238372,0.88205865,29.867652,4.6169886)" />
    <text
       xml:space="preserve"
       style="font-size:3.33267px;fill:#f9f9f9;fill-opacity:1;stroke-width:0.277722"
       x="30.045315"
       y="20.413088"
       id="text52-3"
       transform="scale(0.95268953,1.0496599)"><tspan
         sodipodi:role="line"
         id="tspan52-0"
         style="fill:#f9f9f9;stroke-width:0.277722"
         x="30.045315"
         y="20.413088">4</tspan></text>
    <path
       sodipodi:type="star"
       style="fill:#00ff00;fill-opacity:1;stroke-width:0.264583"
       id="path53"
       inkscape:flatsided="true"
       sodipodi:sides="5"
       sodipodi:cx="0.75634795"
       sodipodi:cy="26.66955"
       sodipodi:r1="4.5215573"
       sodipodi:r2="3.6580164"
       sodipodi:arg1="-0.30283274"
       sodipodi:arg2="0.32548579"
       inkscape:rounded="0.1"
       inkscape:randomized="0.004"
       d="m 5.0888482,25.32394 c 0.1613932,0.506381 -1.2669595,4.714261 -1.7021288,5.020116 -0.4351692,0.305854 -4.8856683,0.25713 -5.312938,-0.05901 -0.4272696,-0.316137 -1.7832124,-4.550796 -1.6101539,-5.053183 0.1730585,-0.502387 3.825508,-3.091255 4.35777985,-3.088216 0.53227185,0.003 4.10604765,2.67391 4.26744085,3.18029 z"
       inkscape:transform-center-x="-0.016290362"
       inkscape:transform-center-y="-0.29809316"
       transform="matrix(0.91730772,0,0,0.94427784,3.5224402,4.7548279)" />
    <text
       xml:space="preserve"
       style="font-size:3.175px;white-space:pre;inline-size:0;fill:#00ff00;fill-opacity:1;stroke-width:0.264583"
       x="3.5930381"
       y="29.777582"
       id="text53"><tspan
         id="tspan53"
         style="stroke-width:0.264583"
         x="3.5930381"
         y="29.777582" /></text>
    <text
       xml:space="preserve"
       style="font-size:3.175px;fill:#000080;fill-opacity:1;stroke-width:0.264583"
       x="3.0907674"
       y="30.950706"
       id="text54"><tspan
         sodipodi:role="line"
         id="tspan54"
         style="fill:#000080;stroke-width:0.264583"
         x="3.0907674"
         y="30.950706">1</tspan></text>
    <path
       sodipodi:type="star"
       style="fill:#00ff00;fill-opacity:1;stroke-width:0.264583"
       id="path53-5"
       inkscape:flatsided="true"
       sodipodi:sides="5"
       sodipodi:cx="0.75634795"
       sodipodi:cy="26.66955"
       sodipodi:r1="4.5215573"
       sodipodi:r2="3.6580164"
       sodipodi:arg1="-0.30283274"
       sodipodi:arg2="0.32548579"
       inkscape:rounded="0.1"
       inkscape:randomized="0.004"
       d="m 5.0888482,25.32394 c 0.1613932,0.506381 -1.2669595,4.714261 -1.7021288,5.020116 -0.4351692,0.305854 -4.8856683,0.25713 -5.312938,-0.05901 -0.4272696,-0.316137 -1.7832124,-4.550796 -1.6101539,-5.053183 0.1730585,-0.502387 3.825508,-3.091255 4.35777985,-3.088216 0.53227185,0.003 4.10604765,2.67391 4.26744085,3.18029 z"
       inkscape:transform-center-x="-0.016290362"
       inkscape:transform-center-y="-0.29809316"
       transform="matrix(0.91730772,0,0,0.94427784,11.989107,4.7548279)" />
    <text
       xml:space="preserve"
       style="font-size:3.175px;fill:#000080;fill-opacity:1;stroke-width:0.264583"
       x="11.557434"
       y="30.950706"
       id="text54-9"><tspan
         sodipodi:role="line"
         id="tspan54-6"
         style="fill:#000080;stroke-width:0.264583"
         x="11.557434"
         y="30.950706">2</tspan></text>
    <path
       sodipodi:type="star"
       style="fill:#00ff00;fill-opacity:1;stroke-width:0.264583"
       id="path53-8"
       inkscape:flatsided="true"
       sodipodi:sides="5"
       sodipodi:cx="0.75634795"
       sodipodi:cy="26.66955"
       sodipodi:r1="4.5215573"
       sodipodi:r2="3.6580164"
       sodipodi:arg1="-0.30283274"
       sodipodi:arg2="0.32548579"
       inkscape:rounded="0.1"
       inkscape:randomized="0.004"
       d="m 5.0888482,25.32394 c 0.1613932,0.506381 -1.2669595,4.714261 -1.7021288,5.020116 -0.4351692,0.305854 -4.8856683,0.25713 -5.312938,-0.05901 -0.4272696,-0.316137 -1.7832124,-4.550796 -1.6101539,-5.053183 0.1730585,-0.502387 3.825508,-3.091255 4.35777985,-3.088216 0.53227185,0.003 4.10604765,2.67391 4.26744085,3.18029 z"
       inkscape:transform-center-x="-0.016290362"
       inkscape:transform-center-y="-0.29809316"
       transform="matrix(0.9173077,0,0,0.94427784,20.455773,4.7548279)" />
    <text
       xml:space="preserve"
       style="font-size:3.175px;fill:#000080;fill-opacity:1;stroke-width:0.264583"
       x="20.024101"
       y="30.950708"
       id="text54-5"><tspan
         sodipodi:role="line"
         id="tspan54-7"
         style="fill:#000080;stroke-width:0.264583"
         x="20.024101"
         y="30.950708">3</tspan></text>
    <path
       sodipodi:type="star"
       style="fill:#00ff00;fill-opacity:1;stroke-width:0.264583"
       id="path53-5-4"
       inkscape:flatsided="true"
       sodipodi:sides="5"
       sodipodi:cx="0.75634795"
       sodipodi:cy="26.66955"
       sodipodi:r1="4.5215573"
       sodipodi:r2="3.6580164"
       sodipodi:arg1="-0.30283274"
       sodipodi:arg2="0.32548579"
       inkscape:rounded="0.1"
       inkscape:randomized="0.004"
       d="m 5.0888482,25.32394 c 0.1613932,0.506381 -1.2669595,4.714261 -1.7021288,5.020116 -0.4351692,0.305854 -4.8856683,0.25713 -5.312938,-0.05901 -0.4272696,-0.316137 -1.7832124,-4.550796 -1.6101539,-5.053183 0.1730585,-0.502387 3.825508,-3.091255 4.35777985,-3.088216 0.53227185,0.003 4.10604765,2.67391 4.26744085,3.18029 z"
       inkscape:transform-center-x="-0.016290362"
       inkscape:transform-center-y="-0.29809316"
       transform="matrix(0.9173077,0,0,0.94427784,28.92244,4.7548279)" />
    <text
       xml:space="preserve"
       style="font-size:3.175px;fill:#000080;fill-opacity:1;stroke-width:0.264583"
       x="28.490768"
       y="30.950708"
       id="text54-9-1"><tspan
         sodipodi:role="line"
         id="tspan54-6-8"
         style="fill:#000080;stroke-width:0.264583"
         x="28.490768"
         y="30.950708">4</tspan></text>
    <path
       sodipodi:type="star"
       style="fill:#00ff00;fill-opacity:1;stroke-width:0.264583"
       id="path53-53"
       inkscape:flatsided="true"
       sodipodi:sides="5"
       sodipodi:cx="0.75634795"
       sodipodi:cy="26.66955"
       sodipodi:r1="4.5215573"
       sodipodi:r2="3.6580164"
       sodipodi:arg1="-0.30283274"
       sodipodi:arg2="0.32548579"
       inkscape:rounded="0.1"
       inkscape:randomized="0.004"
       d="m 5.0888482,25.32394 c 0.1613932,0.506381 -1.2669595,4.714261 -1.7021288,5.020116 -0.4351692,0.305854 -4.8856683,0.25713 -5.312938,-0.05901 -0.4272696,-0.316137 -1.7832124,-4.550796 -1.6101539,-5.053183 0.1730585,-0.502387 3.825508,-3.091255 4.35777985,-3.088216 0.53227185,0.003 4.10604765,2.67391 4.26744085,3.18029 z"
       inkscape:transform-center-x="-0.016290362"
       inkscape:transform-center-y="-0.29809316"
       transform="matrix(0.91730771,0,0,0.94427784,37.389106,4.7548279)" />
    <text
       xml:space="preserve"
       style="font-size:3.175px;fill:#000080;fill-opacity:1;stroke-width:0.264583"
       x="36.957436"
       y="30.950708"
       id="text54-8"><tspan
         sodipodi:role="line"
         id="tspan54-8"
         style="fill:#000080;stroke-width:0.264583"
         x="36.957436"
         y="30.950708">5</tspan></text>
    <path
       sodipodi:type="star"
       style="fill:#00ff00;fill-opacity:1;stroke-width:0.264583"
       id="path53-5-3"
       inkscape:flatsided="true"
       sodipodi:sides="5"
       sodipodi:cx="0.75634795"
       sodipodi:cy="26.66955"
       sodipodi:r1="4.5215573"
       sodipodi:r2="3.6580164"
       sodipodi:arg1="-0.30283274"
       sodipodi:arg2="0.32548579"
       inkscape:rounded="0.1"
       inkscape:randomized="0.004"
       d="m 5.0888482,25.32394 c 0.1613932,0.506381 -1.2669595,4.714261 -1.7021288,5.020116 -0.4351692,0.305854 -4.8856683,0.25713 -5.312938,-0.05901 -0.4272696,-0.316137 -1.7832124,-4.550796 -1.6101539,-5.053183 0.1730585,-0.502387 3.825508,-3.091255 4.35777985,-3.088216 0.53227185,0.003 4.10604765,2.67391 4.26744085,3.18029 z"
       inkscape:transform-center-x="-0.016290362"
       inkscape:transform-center-y="-0.29809316"
       transform="matrix(0.91730771,0,0,0.94427784,45.855773,4.7548279)" />
    <text
       xml:space="preserve"
       style="font-size:3.175px;fill:#000080;fill-opacity:1;stroke-width:0.264583"
       x="45.424103"
       y="30.950708"
       id="text54-9-18"><tspan
         sodipodi:role="line"
         id="tspan54-6-9"
         style="fill:#000080;stroke-width:0.264583"
         x="45.424103"
         y="30.950708">6</tspan></text>
    <path
       sodipodi:type="star"
       style="fill:#00ff00;fill-opacity:1;stroke-width:0.264583"
       id="path53-8-6"
       inkscape:flatsided="true"
       sodipodi:sides="5"
       sodipodi:cx="0.75634795"
       sodipodi:cy="26.66955"
       sodipodi:r1="4.5215573"
       sodipodi:r2="3.6580164"
       sodipodi:arg1="-0.30283274"
       sodipodi:arg2="0.32548579"
       inkscape:rounded="0.1"
       inkscape:randomized="0.004"
       d="m 5.0888482,25.32394 c 0.1613932,0.506381 -1.2669595,4.714261 -1.7021288,5.020116 -0.4351692,0.305854 -4.8856683,0.25713 -5.312938,-0.05901 -0.4272696,-0.316137 -1.7832124,-4.550796 -1.6101539,-5.053183 0.1730585,-0.502387 3.825508,-3.091255 4.35777985,-3.088216 0.53227185,0.003 4.10604765,2.67391 4.26744085,3.18029 z"
       inkscape:transform-center-x="-0.016290362"
       inkscape:transform-center-y="-0.29809316"
       transform="matrix(0.91730769,0,0,0.94427784,54.322439,4.7548279)" />
    <text
       xml:space="preserve"
       style="font-size:3.175px;fill:#000080;fill-opacity:1;stroke-width:0.264583"
       x="53.89077"
       y="30.95071"
       id="text54-5-4"><tspan
         sodipodi:role="line"
         id="tspan54-7-3"
         style="fill:#000080;stroke-width:0.264583"
         x="53.89077"
         y="30.95071">7</tspan></text>
    <path
       sodipodi:type="star"
       style="fill:#00ff00;fill-opacity:1;stroke-width:0.264583"
       id="path53-5-4-3"
       inkscape:flatsided="true"
       sodipodi:sides="5"
       sodipodi:cx="0.75634795"
       sodipodi:cy="26.66955"
       sodipodi:r1="4.5215573"
       sodipodi:r2="3.6580164"
       sodipodi:arg1="-0.30283274"
       sodipodi:arg2="0.32548579"
       inkscape:rounded="0.1"
       inkscape:randomized="0.004"
       d="m 5.0888482,25.32394 c 0.1613932,0.506381 -1.2669595,4.714261 -1.7021288,5.020116 -0.4351692,0.305854 -4.8856683,0.25713 -5.312938,-0.05901 -0.4272696,-0.316137 -1.7832124,-4.550796 -1.6101539,-5.053183 0.1730585,-0.502387 3.825508,-3.091255 4.35777985,-3.088216 0.53227185,0.003 4.10604765,2.67391 4.26744085,3.18029 z"
       inkscape:transform-center-x="-0.016290362"
       inkscape:transform-center-y="-0.29809316"
       transform="matrix(0.91730769,0,0,0.94427784,62.789106,4.7548279)" />
    <text
       xml:space="preserve"
       style="font-size:3.175px;fill:#000080;fill-opacity:1;stroke-width:0.264583"
       x="62.357437"
       y="30.95071"
       id="text54-9-1-3"><tspan
         sodipodi:role="line"
         id="tspan54-6-8-8"
         style="fill:#000080;stroke-width:0.264583"
         x="62.357437"
         y="30.95071">8</tspan></text>
    <path
       sodipodi:type="star"
       style="fill:#00ff00;fill-opacity:1;stroke-width:0.264583"
       id="path53-88"
       inkscape:flatsided="true"
       sodipodi:sides="5"
       sodipodi:cx="0.75634795"
       sodipodi:cy="26.66955"
       sodipodi:r1="4.5215573"
       sodipodi:r2="3.6580164"
       sodipodi:arg1="-0.30283274"
       sodipodi:arg2="0.32548579"
       inkscape:rounded="0.1"
       inkscape:randomized="0.004"
       d="m 5.0888482,25.32394 c 0.1613932,0.506381 -1.2669595,4.714261 -1.7021288,5.020116 -0.4351692,0.305854 -4.8856683,0.25713 -5.312938,-0.05901 -0.4272696,-0.316137 -1.7832124,-4.550796 -1.6101539,-5.053183 0.1730585,-0.502387 3.825508,-3.091255 4.35777985,-3.088216 0.53227185,0.003 4.10604765,2.67391 4.26744085,3.18029 z"
       inkscape:transform-center-x="-0.016290362"
       inkscape:transform-center-y="-0.29809316"
       transform="matrix(0.91730772,0,0,0.94427784,3.5224402,13.221494)" />
    <text
       xml:space="preserve"
       style="font-size:3.175px;fill:#000080;fill-opacity:1;stroke-width:0.264583"
       x="3.0907683"
       y="39.417374"
       id="text54-89"><tspan
         sodipodi:role="line"
         id="tspan54-77"
         style="fill:#000080;stroke-width:0.264583"
         x="3.0907683"
         y="39.417374">9</tspan></text>
    <path
       sodipodi:type="star"
       style="fill:#00ff00;fill-opacity:1;stroke-width:0.264583"
       id="path53-5-6"
       inkscape:flatsided="true"
       sodipodi:sides="5"
       sodipodi:cx="0.75634795"
       sodipodi:cy="26.66955"
       sodipodi:r1="4.5215573"
       sodipodi:r2="3.6580164"
       sodipodi:arg1="-0.30283274"
       sodipodi:arg2="0.32548579"
       inkscape:rounded="0.1"
       inkscape:randomized="0.004"
       d="m 5.0888482,25.32394 c 0.1613932,0.506381 -1.2669595,4.714261 -1.7021288,5.020116 -0.4351692,0.305854 -4.8856683,0.25713 -5.312938,-0.05901 -0.4272696,-0.316137 -1.7832124,-4.550796 -1.6101539,-5.053183 0.1730585,-0.502387 3.825508,-3.091255 4.35777985,-3.088216 0.53227185,0.003 4.10604765,2.67391 4.26744085,3.18029 z"
       inkscape:transform-center-x="-0.016290362"
       inkscape:transform-center-y="-0.29809316"
       transform="matrix(0.91730772,0,0,0.94427784,11.989108,13.221494)" />
    <text
       xml:space="preserve"
       style="font-size:3.175px;fill:#000080;fill-opacity:1;stroke-width:0.264583"
       x="10.763684"
       y="39.417427"
       id="text54-9-4"><tspan
         sodipodi:role="line"
         id="tspan54-6-3"
         style="fill:#000080;stroke-width:0.264583"
         x="10.763684"
         y="39.417427">10</tspan></text>
    <path
       sodipodi:type="star"
       style="fill:#00ff00;fill-opacity:1;stroke-width:0.264583"
       id="path53-8-0"
       inkscape:flatsided="true"
       sodipodi:sides="5"
       sodipodi:cx="0.75634795"
       sodipodi:cy="26.66955"
       sodipodi:r1="4.5215573"
       sodipodi:r2="3.6580164"
       sodipodi:arg1="-0.30283274"
       sodipodi:arg2="0.32548579"
       inkscape:rounded="0.1"
       inkscape:randomized="0.004"
       d="m 5.0888482,25.32394 c 0.1613932,0.506381 -1.2669595,4.714261 -1.7021288,5.020116 -0.4351692,0.305854 -4.8856683,0.25713 -5.312938,-0.05901 -0.4272696,-0.316137 -1.7832124,-4.550796 -1.6101539,-5.053183 0.1730585,-0.502387 3.825508,-3.091255 4.35777985,-3.088216 0.53227185,0.003 4.10604765,2.67391 4.26744085,3.18029 z"
       inkscape:transform-center-x="-0.016290362"
       inkscape:transform-center-y="-0.29809316"
       transform="matrix(0.9173077,0,0,0.94427784,20.455774,13.221494)" />
    <text
       xml:space="preserve"
       style="font-size:3.175px;fill:#000080;fill-opacity:1;stroke-width:0.264583"
       x="19.23035"
       y="39.417374"
       id="text54-5-3"><tspan
         sodipodi:role="line"
         id="tspan54-7-0"
         style="fill:#000080;stroke-width:0.264583"
         x="19.23035"
         y="39.417374">11</tspan></text>
    <path
       sodipodi:type="star"
       style="fill:#00ff00;fill-opacity:1;stroke-width:0.264583"
       id="path53-5-4-9"
       inkscape:flatsided="true"
       sodipodi:sides="5"
       sodipodi:cx="0.75634795"
       sodipodi:cy="26.66955"
       sodipodi:r1="4.5215573"
       sodipodi:r2="3.6580164"
       sodipodi:arg1="-0.30283274"
       sodipodi:arg2="0.32548579"
       inkscape:rounded="0.1"
       inkscape:randomized="0.004"
       d="m 5.0888482,25.32394 c 0.1613932,0.506381 -1.2669595,4.714261 -1.7021288,5.020116 -0.4351692,0.305854 -4.8856683,0.25713 -5.312938,-0.05901 -0.4272696,-0.316137 -1.7832124,-4.550796 -1.6101539,-5.053183 0.1730585,-0.502387 3.825508,-3.091255 4.35777985,-3.088216 0.53227185,0.003 4.10604765,2.67391 4.26744085,3.18029 z"
       inkscape:transform-center-x="-0.016290362"
       inkscape:transform-center-y="-0.29809316"
       transform="matrix(0.9173077,0,0,0.94427784,28.922441,13.221494)" />
    <text
       xml:space="preserve"
       style="font-size:3.175px;fill:#000080;fill-opacity:1;stroke-width:0.264583"
       x="27.432434"
       y="39.417374"
       id="text54-9-1-2"><tspan
         sodipodi:role="line"
         id="tspan54-6-8-5"
         style="fill:#000080;stroke-width:0.264583"
         x="27.432434"
         y="39.417374">12</tspan></text>
    <path
       sodipodi:type="star"
       style="fill:#000080;fill-opacity:1;stroke-width:0.264583"
       id="path52-2"
       inkscape:flatsided="true"
       sodipodi:sides="3"
       sodipodi:cx="0.5936963"
       sodipodi:cy="17.576975"
       sodipodi:r1="5.6493931"
       sodipodi:r2="2.72193"
       sodipodi:arg1="1.537833"
       sodipodi:arg2="2.5850306"
       inkscape:rounded="0.079672358"
       inkscape:randomized="0.004"
       d="m 0.76934782,23.22802 c -0.77872044,0.02597 -5.54321112,-7.623099 -5.17854412,-8.31077 0.364667,-0.68767 9.3818574,-0.994397 9.7937342,-0.332402 0.4118769,0.661994 -3.8364696,8.617207 -4.61519008,8.643172 z"
       inkscape:transform-center-x="0.81244363"
       inkscape:transform-center-y="0.15207487"
       transform="matrix(0.03892348,-0.80511629,0.88205865,0.04238372,-12.316345,46.332347)" />
    <text
       xml:space="preserve"
       style="font-size:3.175px;fill:#f9f9f9;fill-opacity:1;stroke-width:0.264583"
       x="1.914142"
       y="47.630684"
       id="text55"><tspan
         sodipodi:role="line"
         id="tspan55"
         style="fill:#f9f9f9;stroke-width:0.264583"
         x="1.914142"
         y="47.630684">5</tspan></text>
    <path
       sodipodi:type="star"
       style="fill:#000080;fill-opacity:1;stroke-width:0.264583"
       id="path52-2-9"
       inkscape:flatsided="true"
       sodipodi:sides="3"
       sodipodi:cx="0.5936963"
       sodipodi:cy="17.576975"
       sodipodi:r1="5.6493931"
       sodipodi:r2="2.72193"
       sodipodi:arg1="1.537833"
       sodipodi:arg2="2.5850306"
       inkscape:rounded="0.079672358"
       inkscape:randomized="0.004"
       d="m 0.76934782,23.22802 c -0.77872044,0.02597 -5.54321112,-7.623099 -5.17854412,-8.31077 0.364667,-0.68767 9.3818574,-0.994397 9.7937342,-0.332402 0.4118769,0.661994 -3.8364696,8.617207 -4.61519008,8.643172 z"
       inkscape:transform-center-x="0.81244363"
       inkscape:transform-center-y="0.15207487"
       transform="matrix(0.03892348,-0.80511629,0.88205865,0.04238372,-3.7713294,46.332347)" />
    <text
       xml:space="preserve"
       style="font-size:3.175px;fill:#f9f9f9;fill-opacity:1;stroke-width:0.264583"
       x="10.459158"
       y="47.630684"
       id="text55-6"><tspan
         sodipodi:role="line"
         id="tspan55-0"
         style="fill:#f9f9f9;stroke-width:0.264583"
         x="10.459158"
         y="47.630684">6</tspan></text>
    <path
       sodipodi:type="star"
       style="fill:#000080;fill-opacity:1;stroke-width:0.264583"
       id="path52-2-1"
       inkscape:flatsided="true"
       sodipodi:sides="3"
       sodipodi:cx="0.5936963"
       sodipodi:cy="17.576975"
       sodipodi:r1="5.6493931"
       sodipodi:r2="2.72193"
       sodipodi:arg1="1.537833"
       sodipodi:arg2="2.5850306"
       inkscape:rounded="0.079672358"
       inkscape:randomized="0.004"
       d="m 0.76934782,23.22802 c -0.77872044,0.02597 -5.54321112,-7.623099 -5.17854412,-8.31077 0.364667,-0.68767 9.3818574,-0.994397 9.7937342,-0.332402 0.4118769,0.661994 -3.8364696,8.617207 -4.61519008,8.643172 z"
       inkscape:transform-center-x="0.81244363"
       inkscape:transform-center-y="0.15207487"
       transform="matrix(0.03892348,-0.80511629,0.88205865,0.04238372,4.7976704,46.332347)" />
    <text
       xml:space="preserve"
       style="font-size:3.175px;fill:#f9f9f9;fill-opacity:1;stroke-width:0.264583"
       x="19.028156"
       y="47.630684"
       id="text55-3"><tspan
         sodipodi:role="line"
         id="tspan55-2"
         style="fill:#f9f9f9;stroke-width:0.264583"
         x="19.028156"
         y="47.630684">7</tspan></text>
    <path
       sodipodi:type="star"
       style="fill:#000080;fill-opacity:1;stroke-width:0.264583"
       id="path52-2-91"
       inkscape:flatsided="true"
       sodipodi:sides="3"
       sodipodi:cx="0.5936963"
       sodipodi:cy="17.576975"
       sodipodi:r1="5.6493931"
       sodipodi:r2="2.72193"
       sodipodi:arg1="1.537833"
       sodipodi:arg2="2.5850306"
       inkscape:rounded="0.079672358"
       inkscape:randomized="0.004"
       d="m 0.76934782,23.22802 c -0.77872044,0.02597 -5.54321112,-7.623099 -5.17854412,-8.31077 0.364667,-0.68767 9.3818574,-0.994397 9.7937342,-0.332402 0.4118769,0.661994 -3.8364696,8.617207 -4.61519008,8.643172 z"
       inkscape:transform-center-x="0.81244363"
       inkscape:transform-center-y="0.15207487"
       transform="matrix(0.03892348,-0.80511629,0.88205865,0.04238372,13.348238,46.332347)" />
    <text
       xml:space="preserve"
       style="font-size:3.175px;fill:#f9f9f9;fill-opacity:1;stroke-width:0.264583"
       x="27.578724"
       y="47.630684"
       id="text55-4"><tspan
         sodipodi:role="line"
         id="tspan55-9"
         style="fill:#f9f9f9;stroke-width:0.264583"
         x="27.578724"
         y="47.630684">8</tspan></text>
    <path
       sodipodi:type="star"
       style="fill:#000080;fill-opacity:1;stroke-width:0.264583"
       id="path52-2-5"
       inkscape:flatsided="true"
       sodipodi:sides="3"
       sodipodi:cx="0.5936963"
       sodipodi:cy="17.576975"
       sodipodi:r1="5.6493931"
       sodipodi:r2="2.72193"
       sodipodi:arg1="1.537833"
       sodipodi:arg2="2.5850306"
       inkscape:rounded="0.079672358"
       inkscape:randomized="0.004"
       d="m 0.76934782,23.22802 c -0.77872044,0.02597 -5.54321112,-7.623099 -5.17854412,-8.31077 0.364667,-0.68767 9.3818574,-0.994397 9.7937342,-0.332402 0.4118769,0.661994 -3.8364696,8.617207 -4.61519008,8.643172 z"
       inkscape:transform-center-x="0.81244363"
       inkscape:transform-center-y="0.15207487"
       transform="matrix(0.03892348,-0.80511629,0.88205865,0.04238372,21.803126,37.861588)" />
    <text
       xml:space="preserve"
       style="font-size:3.175px;fill:#f9f9f9;fill-opacity:1;stroke-width:0.264583"
       x="36.033611"
       y="39.159924"
       id="text55-8"><tspan
         sodipodi:role="line"
         id="tspan55-7"
         style="fill:#f9f9f9;stroke-width:0.264583"
         x="36.033611"
         y="39.159924">1</tspan></text>
    <path
       sodipodi:type="star"
       style="fill:#000080;fill-opacity:1;stroke-width:0.264583"
       id="path52-2-9-0"
       inkscape:flatsided="true"
       sodipodi:sides="3"
       sodipodi:cx="0.5936963"
       sodipodi:cy="17.576975"
       sodipodi:r1="5.6493931"
       sodipodi:r2="2.72193"
       sodipodi:arg1="1.537833"
       sodipodi:arg2="2.5850306"
       inkscape:rounded="0.079672358"
       inkscape:randomized="0.004"
       d="m 0.76934782,23.22802 c -0.77872044,0.02597 -5.54321112,-7.623099 -5.17854412,-8.31077 0.364667,-0.68767 9.3818574,-0.994397 9.7937342,-0.332402 0.4118769,0.661994 -3.8364696,8.617207 -4.61519008,8.643172 z"
       inkscape:transform-center-x="0.81244363"
       inkscape:transform-center-y="0.15207487"
       transform="matrix(0.03892348,-0.80511629,0.88205865,0.04238372,30.348142,37.861588)" />
    <text
       xml:space="preserve"
       style="font-size:3.175px;fill:#f9f9f9;fill-opacity:1;stroke-width:0.264583"
       x="44.578629"
       y="39.159924"
       id="text55-6-4"><tspan
         sodipodi:role="line"
         id="tspan55-0-8"
         style="fill:#f9f9f9;stroke-width:0.264583"
         x="44.578629"
         y="39.159924">2</tspan></text>
    <path
       sodipodi:type="star"
       style="fill:#000080;fill-opacity:1;stroke-width:0.264583"
       id="path52-2-1-0"
       inkscape:flatsided="true"
       sodipodi:sides="3"
       sodipodi:cx="0.5936963"
       sodipodi:cy="17.576975"
       sodipodi:r1="5.6493931"
       sodipodi:r2="2.72193"
       sodipodi:arg1="1.537833"
       sodipodi:arg2="2.5850306"
       inkscape:rounded="0.079672358"
       inkscape:randomized="0.004"
       d="m 0.76934782,23.22802 c -0.77872044,0.02597 -5.54321112,-7.623099 -5.17854412,-8.31077 0.364667,-0.68767 9.3818574,-0.994397 9.7937342,-0.332402 0.4118769,0.661994 -3.8364696,8.617207 -4.61519008,8.643172 z"
       inkscape:transform-center-x="0.81244363"
       inkscape:transform-center-y="0.15207487"
       transform="matrix(0.03892348,-0.80511629,0.88205865,0.04238372,38.483655,37.861588)" />
    <text
       xml:space="preserve"
       style="font-size:3.175px;fill:#f9f9f9;fill-opacity:1;stroke-width:0.264583"
       x="53.147629"
       y="39.159924"
       id="text55-3-4"><tspan
         sodipodi:role="line"
         id="tspan55-2-2"
         style="fill:#f9f9f9;stroke-width:0.264583"
         x="53.147629"
         y="39.159924">3</tspan></text>
    <path
       sodipodi:type="star"
       style="fill:#000080;fill-opacity:1;stroke-width:0.264583"
       id="path52-2-91-9"
       inkscape:flatsided="true"
       sodipodi:sides="3"
       sodipodi:cx="0.5936963"
       sodipodi:cy="17.576975"
       sodipodi:r1="5.6493931"
       sodipodi:r2="2.72193"
       sodipodi:arg1="1.537833"
       sodipodi:arg2="2.5850306"
       inkscape:rounded="0.079672358"
       inkscape:randomized="0.004"
       d="m 0.76934782,23.22802 c -0.77872044,0.02597 -5.54321112,-7.623099 -5.17854412,-8.31077 0.364667,-0.68767 9.3818574,-0.994397 9.7937342,-0.332402 0.4118769,0.661994 -3.8364696,8.617207 -4.61519008,8.643172 z"
       inkscape:transform-center-x="0.81244363"
       inkscape:transform-center-y="0.15207487"
       transform="matrix(0.03892348,-0.80511629,0.88205865,0.04238372,46.950321,37.865681)" />
    <text
       xml:space="preserve"
       style="font-size:3.175px;fill:#f9f9f9;fill-opacity:1;stroke-width:0.264583"
       x="61.169029"
       y="39.159924"
       id="text55-4-6"><tspan
         sodipodi:role="line"
         id="tspan55-9-1"
         style="fill:#f9f9f9;stroke-width:0.264583"
         x="61.169029"
         y="39.159924">4</tspan></text>
    <path
       sodipodi:type="star"
       style="fill:#000080;fill-opacity:1;stroke-width:0.264583"
       id="path52-2-5-2"
       inkscape:flatsided="true"
       sodipodi:sides="3"
       sodipodi:cx="0.5936963"
       sodipodi:cy="17.576975"
       sodipodi:r1="5.6493931"
       sodipodi:r2="2.72193"
       sodipodi:arg1="1.537833"
       sodipodi:arg2="2.5850306"
       inkscape:rounded="0.079672358"
       inkscape:randomized="0.004"
       d="m 0.76934782,23.22802 c -0.77872044,0.02597 -5.54321112,-7.623099 -5.17854412,-8.31077 0.364667,-0.68767 9.3818574,-0.994397 9.7937342,-0.332402 0.4118769,0.661994 -3.8364696,8.617207 -4.61519008,8.643172 z"
       inkscape:transform-center-x="0.81244363"
       inkscape:transform-center-y="0.15207487"
       transform="matrix(0.03892348,-0.80511629,0.88205865,0.04238372,21.814905,46.332347)" />
    <text
       xml:space="preserve"
       style="font-size:3.175px;fill:#f9f9f9;fill-opacity:1;stroke-width:0.264583"
       x="36.045391"
       y="47.630684"
       id="text55-8-2"><tspan
         sodipodi:role="line"
         id="tspan55-7-0"
         style="fill:#f9f9f9;stroke-width:0.264583"
         x="36.045391"
         y="47.630684">9</tspan></text>
    <path
       sodipodi:type="star"
       style="fill:#000080;fill-opacity:1;stroke-width:0.264583"
       id="path52-2-9-0-5"
       inkscape:flatsided="true"
       sodipodi:sides="3"
       sodipodi:cx="0.5936963"
       sodipodi:cy="17.576975"
       sodipodi:r1="5.6493931"
       sodipodi:r2="2.72193"
       sodipodi:arg1="1.537833"
       sodipodi:arg2="2.5850306"
       inkscape:rounded="0.079672358"
       inkscape:randomized="0.004"
       d="m 0.76934782,23.22802 c -0.77872044,0.02597 -5.54321112,-7.623099 -5.17854412,-8.31077 0.364667,-0.68767 9.3818574,-0.994397 9.7937342,-0.332402 0.4118769,0.661994 -3.8364696,8.617207 -4.61519008,8.643172 z"
       inkscape:transform-center-x="0.81244363"
       inkscape:transform-center-y="0.15207487"
       transform="matrix(0.03892348,-0.80511629,0.88205865,0.04238372,30.359921,46.332347)" />
    <text
       xml:space="preserve"
       style="font-size:3.175px;fill:#f9f9f9;fill-opacity:1;stroke-width:0.264583"
       x="44.061241"
       y="47.630684"
       id="text55-6-4-5"><tspan
         sodipodi:role="line"
         id="tspan55-0-8-2"
         style="fill:#f9f9f9;stroke-width:0.264583"
         x="44.061241"
         y="47.630684">10</tspan></text>
    <path
       sodipodi:type="star"
       style="fill:#000080;fill-opacity:1;stroke-width:0.264583"
       id="path52-2-1-0-9"
       inkscape:flatsided="true"
       sodipodi:sides="3"
       sodipodi:cx="0.5936963"
       sodipodi:cy="17.576975"
       sodipodi:r1="5.6493931"
       sodipodi:r2="2.72193"
       sodipodi:arg1="1.537833"
       sodipodi:arg2="2.5850306"
       inkscape:rounded="0.079672358"
       inkscape:randomized="0.004"
       d="m 0.76934782,23.22802 c -0.77872044,0.02597 -5.54321112,-7.623099 -5.17854412,-8.31077 0.364667,-0.68767 9.3818574,-0.994397 9.7937342,-0.332402 0.4118769,0.661994 -3.8364696,8.617207 -4.61519008,8.643172 z"
       inkscape:transform-center-x="0.81244363"
       inkscape:transform-center-y="0.15207487"
       transform="matrix(0.03892348,-0.80511629,0.88205865,0.04238372,38.495434,46.332347)" />
    <text
       xml:space="preserve"
       style="font-size:3.175px;fill:#f9f9f9;fill-opacity:1;stroke-width:0.264583"
       x="52.101074"
       y="47.630684"
       id="text55-3-4-0"><tspan
         sodipodi:role="line"
         id="tspan55-2-2-2"
         style="fill:#f9f9f9;stroke-width:0.264583"
         x="52.101074"
         y="47.630684">11</tspan></text>
    <path
       sodipodi:type="star"
       style="fill:#000080;fill-opacity:1;stroke-width:0.264583"
       id="path52-2-91-9-8"
       inkscape:flatsided="true"
       sodipodi:sides="3"
       sodipodi:cx="0.5936963"
       sodipodi:cy="17.576975"
       sodipodi:r1="5.6493931"
       sodipodi:r2="2.72193"
       sodipodi:arg1="1.537833"
       sodipodi:arg2="2.5850306"
       inkscape:rounded="0.079672358"
       inkscape:randomized="0.004"
       d="m 0.76934782,23.22802 c -0.77872044,0.02597 -5.54321112,-7.623099 -5.17854412,-8.31077 0.364667,-0.68767 9.3818574,-0.994397 9.7937342,-0.332402 0.4118769,0.661994 -3.8364696,8.617207 -4.61519008,8.643172 z"
       inkscape:transform-center-x="0.81244363"
       inkscape:transform-center-y="0.15207487"
       transform="matrix(0.03892348,-0.80511629,0.88205865,0.04238372,46.9621,46.33644)" />
    <text
       xml:space="preserve"
       style="font-size:3.175px;fill:#f9f9f9;fill-opacity:1;stroke-width:0.264583"
       x="60.651642"
       y="47.630684"
       id="text55-4-6-3"><tspan
         sodipodi:role="line"
         id="tspan55-9-1-8"
         style="fill:#f9f9f9;stroke-width:0.264583"
         x="60.651642"
         y="47.630684">12</tspan></text>
    <path
       sodipodi:type="star"
       style="fill:#000080;fill-opacity:1;stroke-width:0.264583"
       id="path52-2-9-0-5-9"
       inkscape:flatsided="true"
       sodipodi:sides="3"
       sodipodi:cx="0.5936963"
       sodipodi:cy="17.576975"
       sodipodi:r1="5.6493931"
       sodipodi:r2="2.72193"
       sodipodi:arg1="1.537833"
       sodipodi:arg2="2.5850306"
       inkscape:rounded="0.079672358"
       inkscape:randomized="0.004"
       d="m 0.76934782,23.22802 c -0.77872044,0.02597 -5.54321112,-7.623099 -5.17854412,-8.31077 0.364667,-0.68767 9.3818574,-0.994397 9.7937342,-0.332402 0.4118769,0.661994 -3.8364696,8.617207 -4.61519008,8.643172 z"
       inkscape:transform-center-x="0.81244006"
       inkscape:transform-center-y="0.15207531"
       transform="matrix(0.03892331,-0.80511629,0.88205487,0.04238372,-12.316291,54.799014)" />
    <text
       xml:space="preserve"
       style="font-size:3.17499px;fill:#f9f9f9;fill-opacity:1;stroke-width:0.264582"
       x="1.3849744"
       y="56.097233"
       id="text55-6-4-5-1"><tspan
         sodipodi:role="line"
         id="tspan55-0-8-2-9"
         style="fill:#f9f9f9;stroke-width:0.264582"
         x="1.3849744"
         y="56.097233">13</tspan></text>
    <path
       sodipodi:type="star"
       style="fill:#000080;fill-opacity:1;stroke-width:0.264583"
       id="path52-2-1-0-9-6"
       inkscape:flatsided="true"
       sodipodi:sides="3"
       sodipodi:cx="0.5936963"
       sodipodi:cy="17.576975"
       sodipodi:r1="5.6493931"
       sodipodi:r2="2.72193"
       sodipodi:arg1="1.537833"
       sodipodi:arg2="2.5850306"
       inkscape:rounded="0.079672358"
       inkscape:randomized="0.004"
       d="m 0.76934782,23.22802 c -0.77872044,0.02597 -5.54321112,-7.623099 -5.17854412,-8.31077 0.364667,-0.68767 9.3818574,-0.994397 9.7937342,-0.332402 0.4118769,0.661994 -3.8364696,8.617207 -4.61519008,8.643172 z"
       inkscape:transform-center-x="0.81244009"
       inkscape:transform-center-y="0.15207531"
       transform="matrix(0.03892331,-0.80511629,0.88205487,0.04238372,-4.1808119,54.799014)" />
    <text
       xml:space="preserve"
       style="font-size:3.17499px;fill:#f9f9f9;fill-opacity:1;stroke-width:0.264582"
       x="9.4247894"
       y="56.097233"
       id="text55-3-4-0-2"><tspan
         sodipodi:role="line"
         id="tspan55-2-2-2-5"
         style="fill:#f9f9f9;stroke-width:0.264582"
         x="9.4247894"
         y="56.097233">14</tspan></text>
    <path
       sodipodi:type="star"
       style="fill:#000080;fill-opacity:1;stroke-width:0.264583"
       id="path52-2-91-9-8-4"
       inkscape:flatsided="true"
       sodipodi:sides="3"
       sodipodi:cx="0.5936963"
       sodipodi:cy="17.576975"
       sodipodi:r1="5.6493931"
       sodipodi:r2="2.72193"
       sodipodi:arg1="1.537833"
       sodipodi:arg2="2.5850306"
       inkscape:rounded="0.079672358"
       inkscape:randomized="0.004"
       d="m 0.76934782,23.22802 c -0.77872044,0.02597 -5.54321112,-7.623099 -5.17854412,-8.31077 0.364667,-0.68767 9.3818574,-0.994397 9.7937342,-0.332402 0.4118769,0.661994 -3.8364696,8.617207 -4.61519008,8.643172 z"
       inkscape:transform-center-x="0.81244011"
       inkscape:transform-center-y="0.15207531"
       transform="matrix(0.03892331,-0.80511629,0.88205487,0.04238372,4.2858178,54.803107)" />
    <text
       xml:space="preserve"
       style="font-size:3.17499px;fill:#f9f9f9;fill-opacity:1;stroke-width:0.264582"
       x="17.97534"
       y="56.097233"
       id="text55-4-6-3-4"><tspan
         sodipodi:role="line"
         id="tspan55-9-1-8-9"
         style="fill:#f9f9f9;stroke-width:0.264582"
         x="17.97534"
         y="56.097233">15</tspan></text>
    <path
       sodipodi:type="star"
       style="fill:#000080;fill-opacity:1;stroke-width:0.264583"
       id="path52-2-9-0-5-9-0"
       inkscape:flatsided="true"
       sodipodi:sides="3"
       sodipodi:cx="0.5936963"
       sodipodi:cy="17.576975"
       sodipodi:r1="5.6493931"
       sodipodi:r2="2.72193"
       sodipodi:arg1="1.537833"
       sodipodi:arg2="2.5850306"
       inkscape:rounded="0.079672358"
       inkscape:randomized="0.004"
       d="m 0.76934782,23.22802 c -0.77872044,0.02597 -5.54321112,-7.623099 -5.17854412,-8.31077 0.364667,-0.68767 9.3818574,-0.994397 9.7937342,-0.332402 0.4118769,0.661994 -3.8364696,8.617207 -4.61519008,8.643172 z"
       inkscape:transform-center-x="0.81244006"
       inkscape:transform-center-y="0.15207531"
       transform="matrix(0.03892331,-0.80511629,0.88205487,0.04238372,13.348292,54.799014)" />
    <text
       xml:space="preserve"
       style="font-size:3.17499px;fill:#f9f9f9;fill-opacity:1;stroke-width:0.264582"
       x="27.049559"
       y="56.097229"
       id="text55-6-4-5-1-5"><tspan
         sodipodi:role="line"
         id="tspan55-0-8-2-9-0"
         style="fill:#f9f9f9;stroke-width:0.264582"
         x="27.049559"
         y="56.097229">16</tspan></text>
    <path
       sodipodi:type="star"
       style="fill:#000080;fill-opacity:1;stroke-width:0.264583"
       id="path52-2-1-0-9-6-2"
       inkscape:flatsided="true"
       sodipodi:sides="3"
       sodipodi:cx="0.5936963"
       sodipodi:cy="17.576975"
       sodipodi:r1="5.6493931"
       sodipodi:r2="2.72193"
       sodipodi:arg1="1.537833"
       sodipodi:arg2="2.5850306"
       inkscape:rounded="0.079672358"
       inkscape:randomized="0.004"
       d="m 0.76934782,23.22802 c -0.77872044,0.02597 -5.54321112,-7.623099 -5.17854412,-8.31077 0.364667,-0.68767 9.3818574,-0.994397 9.7937342,-0.332402 0.4118769,0.661994 -3.8364696,8.617207 -4.61519008,8.643172 z"
       inkscape:transform-center-x="0.81244009"
       inkscape:transform-center-y="0.15207531"
       transform="matrix(0.03892331,-0.80511629,0.88205487,0.04238372,21.483771,54.799014)" />
    <text
       xml:space="preserve"
       style="font-size:3.17499px;fill:#f9f9f9;fill-opacity:1;stroke-width:0.264582"
       x="35.089371"
       y="56.097229"
       id="text55-3-4-0-2-9"><tspan
         sodipodi:role="line"
         id="tspan55-2-2-2-5-4"
         style="fill:#f9f9f9;stroke-width:0.264582"
         x="35.089371"
         y="56.097229">17</tspan></text>
    <path
       sodipodi:type="star"
       style="fill:#000080;fill-opacity:1;stroke-width:0.264583"
       id="path52-2-91-9-8-4-3"
       inkscape:flatsided="true"
       sodipodi:sides="3"
       sodipodi:cx="0.5936963"
       sodipodi:cy="17.576975"
       sodipodi:r1="5.6493931"
       sodipodi:r2="2.72193"
       sodipodi:arg1="1.537833"
       sodipodi:arg2="2.5850306"
       inkscape:rounded="0.079672358"
       inkscape:randomized="0.004"
       d="m 0.76934782,23.22802 c -0.77872044,0.02597 -5.54321112,-7.623099 -5.17854412,-8.31077 0.364667,-0.68767 9.3818574,-0.994397 9.7937342,-0.332402 0.4118769,0.661994 -3.8364696,8.617207 -4.61519008,8.643172 z"
       inkscape:transform-center-x="0.81244011"
       inkscape:transform-center-y="0.15207531"
       transform="matrix(0.03892331,-0.80511629,0.88205487,0.04238372,29.950401,54.803107)" />
    <text
       xml:space="preserve"
       style="font-size:3.17499px;fill:#f9f9f9;fill-opacity:1;stroke-width:0.264582"
       x="43.639923"
       y="56.097229"
       id="text55-4-6-3-4-5"><tspan
         sodipodi:role="line"
         id="tspan55-9-1-8-9-1"
         style="fill:#f9f9f9;stroke-width:0.264582"
         x="43.639923"
         y="56.097229">18</tspan></text>
    <path
       sodipodi:type="star"
       style="fill:#000080;fill-opacity:1;stroke-width:0.264583"
       id="path52-2-1-0-9-6-2-1"
       inkscape:flatsided="true"
       sodipodi:sides="3"
       sodipodi:cx="0.5936963"
       sodipodi:cy="17.576975"
       sodipodi:r1="5.6493931"
       sodipodi:r2="2.72193"
       sodipodi:arg1="1.537833"
       sodipodi:arg2="2.5850306"
       inkscape:rounded="0.079672358"
       inkscape:randomized="0.004"
       d="m 0.76934782,23.22802 c -0.77872044,0.02597 -5.54321112,-7.623099 -5.17854412,-8.31077 0.364667,-0.68767 9.3818574,-0.994397 9.7937342,-0.332402 0.4118769,0.661994 -3.8364696,8.617207 -4.61519008,8.643172 z"
       inkscape:transform-center-x="0.81244009"
       inkscape:transform-center-y="0.15207531"
       transform="matrix(0.03892331,-0.80511629,0.88205487,0.04238372,38.483709,54.799014)" />
    <text
       xml:space="preserve"
       style="font-size:3.17499px;fill:#f9f9f9;fill-opacity:1;stroke-width:0.264582"
       x="52.089314"
       y="56.097229"
       id="text55-3-4-0-2-9-4"><tspan
         sodipodi:role="line"
         id="tspan55-2-2-2-5-4-6"
         style="fill:#f9f9f9;stroke-width:0.264582"
         x="52.089314"
         y="56.097229">19</tspan></text>
    <path
       sodipodi:type="star"
       style="fill:#000080;fill-opacity:1;stroke-width:0.264583"
       id="path52-2-91-9-8-4-3-9"
       inkscape:flatsided="true"
       sodipodi:sides="3"
       sodipodi:cx="0.5936963"
       sodipodi:cy="17.576975"
       sodipodi:r1="5.6493931"
       sodipodi:r2="2.72193"
       sodipodi:arg1="1.537833"
       sodipodi:arg2="2.5850306"
       inkscape:rounded="0.079672358"
       inkscape:randomized="0.004"
       d="m 0.76934782,23.22802 c -0.77872044,0.02597 -5.54321112,-7.623099 -5.17854412,-8.31077 0.364667,-0.68767 9.3818574,-0.994397 9.7937342,-0.332402 0.4118769,0.661994 -3.8364696,8.617207 -4.61519008,8.643172 z"
       inkscape:transform-center-x="0.81244011"
       inkscape:transform-center-y="0.15207531"
       transform="matrix(0.03892331,-0.80511629,0.88205487,0.04238372,46.95034,54.803107)" />
    <text
       xml:space="preserve"
       style="font-size:3.17499px;fill:#f9f9f9;fill-opacity:1;stroke-width:0.264582"
       x="60.639866"
       y="56.097229"
       id="text55-4-6-3-4-5-4"><tspan
         sodipodi:role="line"
         id="tspan55-9-1-8-9-1-2"
         style="fill:#f9f9f9;stroke-width:0.264582"
         x="60.639866"
         y="56.097229">20</tspan></text>
    <path
       sodipodi:type="star"
       style="fill:#550000;fill-opacity:1;stroke-width:0.264583"
       id="path52-6-1"
       inkscape:flatsided="true"
       sodipodi:sides="3"
       sodipodi:cx="0.5936963"
       sodipodi:cy="17.576975"
       sodipodi:r1="4.1467652"
       sodipodi:r2="2.72193"
       sodipodi:arg1="-1.6243293"
       sodipodi:arg2="-0.57713174"
       inkscape:rounded="0.079672358"
       inkscape:randomized="0.004"
       d="m 0.37145811,13.429094 c 0.57244105,-0.03269 4.19322839,5.52711 3.93533749,6.037935 -0.2578909,0.510825 -6.8722626,0.852138 -7.1831157,0.372416 -0.310853,-0.479722 2.67533716,-6.377657 3.24777821,-6.410351 z"
       inkscape:transform-center-x="0.20715543"
       inkscape:transform-center-y="-1.105609"
       transform="matrix(1.0967234,0.05296876,-0.05773479,1.2003438,4.5837288,43.392052)" />
    <text
       xml:space="preserve"
       style="font-size:3.15514px;fill:#f9f9f9;fill-opacity:1;stroke-width:0.262927"
       x="3.1430745"
       y="63.237453"
       id="text56"
       transform="scale(0.96592395,1.0352782)"><tspan
         sodipodi:role="line"
         id="tspan56"
         style="stroke-width:0.262927"
         x="3.1430745"
         y="63.237453">1</tspan></text>
    <path
       sodipodi:type="star"
       style="fill:#550000;fill-opacity:1;stroke-width:0.264583"
       id="path52-6-1-9"
       inkscape:flatsided="true"
       sodipodi:sides="3"
       sodipodi:cx="0.5936963"
       sodipodi:cy="17.576975"
       sodipodi:r1="4.1467652"
       sodipodi:r2="2.72193"
       sodipodi:arg1="-1.6243293"
       sodipodi:arg2="-0.57713174"
       inkscape:rounded="0.079672358"
       inkscape:randomized="0.004"
       d="m 0.37145811,13.429094 c 0.57244105,-0.03269 4.19322839,5.52711 3.93533749,6.037935 -0.2578909,0.510825 -6.8722626,0.852138 -7.1831157,0.372416 -0.310853,-0.479722 2.67533716,-6.377657 3.24777821,-6.410351 z"
       inkscape:transform-center-x="0.20715543"
       inkscape:transform-center-y="-1.105609"
       transform="matrix(1.0967234,0.05296876,-0.05773479,1.2003438,13.050395,43.392052)" />
    <text
       xml:space="preserve"
       style="font-size:3.15514px;fill:#f9f9f9;fill-opacity:1;stroke-width:0.262927"
       x="11.908435"
       y="63.237453"
       id="text56-2"
       transform="scale(0.96592395,1.0352782)"><tspan
         sodipodi:role="line"
         id="tspan56-8"
         style="stroke-width:0.262927"
         x="11.908435"
         y="63.237453">2</tspan></text>
    <path
       sodipodi:type="star"
       style="fill:#550000;fill-opacity:1;stroke-width:0.264583"
       id="path52-6-1-8"
       inkscape:flatsided="true"
       sodipodi:sides="3"
       sodipodi:cx="0.5936963"
       sodipodi:cy="17.576975"
       sodipodi:r1="4.1467652"
       sodipodi:r2="2.72193"
       sodipodi:arg1="-1.6243293"
       sodipodi:arg2="-0.57713174"
       inkscape:rounded="0.079672358"
       inkscape:randomized="0.004"
       d="m 0.37145811,13.429094 c 0.57244105,-0.03269 4.19322839,5.52711 3.93533749,6.037935 -0.2578909,0.510825 -6.8722626,0.852138 -7.1831157,0.372416 -0.310853,-0.479722 2.67533716,-6.377657 3.24777821,-6.410351 z"
       inkscape:transform-center-x="0.20715543"
       inkscape:transform-center-y="-1.105609"
       transform="matrix(1.0967234,0.05296876,-0.05773479,1.2003438,21.517062,43.392052)" />
    <text
       xml:space="preserve"
       style="font-size:3.15514px;fill:#f9f9f9;fill-opacity:1;stroke-width:0.262927"
       x="20.72438"
       y="63.149826"
       id="text56-3"
       transform="scale(0.96592395,1.0352782)"><tspan
         sodipodi:role="line"
         id="tspan56-83"
         style="stroke-width:0.262927"
         x="20.72438"
         y="63.149826">3</tspan></text>
    <path
       sodipodi:type="star"
       style="fill:#550000;fill-opacity:1;stroke-width:0.264583"
       id="path52-6-1-0"
       inkscape:flatsided="true"
       sodipodi:sides="3"
       sodipodi:cx="0.5936963"
       sodipodi:cy="17.576975"
       sodipodi:r1="4.1467652"
       sodipodi:r2="2.72193"
       sodipodi:arg1="-1.6243293"
       sodipodi:arg2="-0.57713174"
       inkscape:rounded="0.079672358"
       inkscape:randomized="0.004"
       d="m 0.37145811,13.429094 c 0.57244105,-0.03269 4.19322839,5.52711 3.93533749,6.037935 -0.2578909,0.510825 -6.8722626,0.852138 -7.1831157,0.372416 -0.310853,-0.479722 2.67533716,-6.377657 3.24777821,-6.410351 z"
       inkscape:transform-center-x="0.20715543"
       inkscape:transform-center-y="-1.105609"
       transform="matrix(1.0967234,0.05296876,-0.05773479,1.2003438,29.983728,43.392052)" />
    <text
       xml:space="preserve"
       style="font-size:3.15514px;fill:#f9f9f9;fill-opacity:1;stroke-width:0.262927"
       x="29.489738"
       y="63.149826"
       id="text56-4"
       transform="scale(0.96592395,1.0352782)"><tspan
         sodipodi:role="line"
         id="tspan56-7"
         style="stroke-width:0.262927"
         x="29.489738"
         y="63.149826">4</tspan></text>
  </g>
</svg>
